<svg width="15" height="15" viewBox="0 0 15 15" fill="none" xmlns="http://www.w3.org/2000/svg">
<g id="flat-color-icons:about">
<path id="Vector" d="M11.5625 12.5H3.4375L1.5625 14.375V3.75C1.5625 2.71875 2.40625 1.875 3.4375 1.875H11.5625C12.5938 1.875 13.4375 2.71875 13.4375 3.75V10.625C13.4375 11.6562 12.5938 12.5 11.5625 12.5Z" fill="#2F7CE5"/>
<g id="Group">
<path id="Vector_2" d="M6.875 6.25H8.125V9.6875H6.875V6.25Z" fill="white"/>
<path id="Vector_3" d="M7.5 5.3125C7.84518 5.3125 8.125 5.03268 8.125 4.6875C8.125 4.34232 7.84518 4.0625 7.5 4.0625C7.15482 4.0625 6.875 4.34232 6.875 4.6875C6.875 5.03268 7.15482 5.3125 7.5 5.3125Z" fill="white"/>
</g>
</g>
</svg>
