<svg width="21" height="20" viewBox="0 0 21 20" fill="none" xmlns="http://www.w3.org/2000/svg">
<g clip-path="url(#clip0_1993_2662)">
<path d="M18.8332 15.8333V18.3333H2.1665V15.8333C2.1665 15.375 2.5415 15 2.99984 15H17.9998C18.4582 15 18.8332 15.375 18.8332 15.8333Z" fill="#2F7CE5" stroke="#2F7CE5" stroke-width="1.5" stroke-miterlimit="10" stroke-linecap="round" stroke-linejoin="round"/>
<path d="M6.3335 9.16719H4.66683V15.0005H6.3335V9.16719ZM9.66683 9.16719H8.00016V15.0005H9.66683V9.16719ZM13.0002 9.16719H11.3335V15.0005H13.0002V9.16719ZM16.3335 9.16719H14.6668V15.0005H16.3335V9.16719ZM19.6668 18.9589H1.3335C0.991829 18.9589 0.708496 18.6755 0.708496 18.3339C0.708496 17.9922 0.991829 17.7089 1.3335 17.7089H19.6668C20.0085 17.7089 20.2918 17.9922 20.2918 18.3339C20.2918 18.6755 20.0085 18.9589 19.6668 18.9589ZM18.3085 4.79219L10.8085 1.79219C10.6418 1.72552 10.3585 1.72552 10.1918 1.79219L2.69183 4.79219C2.40016 4.90885 2.16683 5.25052 2.16683 5.56719V8.33385C2.16683 8.79219 2.54183 9.16719 3.00016 9.16719H18.0002C18.4585 9.16719 18.8335 8.79219 18.8335 8.33385V5.56719C18.8335 5.25052 18.6002 4.90885 18.3085 4.79219ZM10.5002 7.08385C9.8085 7.08385 9.25016 6.52552 9.25016 5.83385C9.25016 5.14219 9.8085 4.58385 10.5002 4.58385C11.1918 4.58385 11.7502 5.14219 11.7502 5.83385C11.7502 6.52552 11.1918 7.08385 10.5002 7.08385Z" fill="#2F7CE5"/>
</g>
<defs>
<clipPath id="clip0_1993_2662">
<rect width="20" height="20" fill="white" transform="translate(0.5)"/>
</clipPath>
</defs>
</svg>
