<svg width="16" height="16" viewBox="0 0 16 16" fill="none" xmlns="http://www.w3.org/2000/svg">
<g id="fluent:lottery-20-regular">
<path id="Vector" d="M6.80475 2.93721C6.95444 2.76774 7.13845 2.63202 7.34457 2.53907C7.5507 2.44611 7.77423 2.39804 8.00035 2.39804C8.22646 2.39804 8.45 2.44611 8.65612 2.53907C8.86225 2.63202 9.04626 2.76774 9.19595 2.93721C9.43446 2.7986 9.68676 2.68519 9.94875 2.59881C9.72675 2.28952 9.43426 2.03756 9.0955 1.8638C8.75675 1.69004 8.38147 1.59947 8.00075 1.59961C7.61969 1.59931 7.24405 1.68987 6.90499 1.86379C6.56593 2.0377 6.27322 2.28995 6.05115 2.59961C6.31515 2.68601 6.56795 2.79961 6.80475 2.93721ZM2.39995 6.39961C2.39978 5.89582 2.55815 5.40476 2.85262 4.99599C3.14708 4.58723 3.56271 4.28149 4.04062 4.1221C4.51853 3.96271 5.03448 3.95775 5.51536 4.10792C5.99624 4.25809 6.41768 4.55578 6.71995 4.95881C7.00263 4.88721 7.29086 4.83957 7.58155 4.81641C7.34568 4.40238 7.02033 4.04624 6.62924 3.77402C6.23816 3.50179 5.79121 3.32034 5.32104 3.24291C4.85087 3.16548 4.36934 3.19404 3.91161 3.32648C3.45388 3.45893 3.03151 3.69193 2.67534 4.00847C2.31916 4.32501 2.03818 4.71709 1.85289 5.1561C1.66761 5.59511 1.58271 6.06995 1.60439 6.54596C1.62607 7.02197 1.75378 7.48714 1.9782 7.90748C2.20262 8.32783 2.51808 8.69276 2.90155 8.97561C2.95835 8.68681 3.03995 8.40601 3.14395 8.13641C2.90854 7.91257 2.72117 7.64315 2.59326 7.34456C2.46535 7.04596 2.39958 6.72445 2.39995 6.39961ZM11.1999 3.19961C10.6349 3.19941 10.0799 3.34882 9.59132 3.63266C9.10275 3.91651 8.69804 4.32465 8.41835 4.81561C8.71355 4.83961 9.00155 4.88761 9.28075 4.95881C9.48003 4.69356 9.73214 4.47252 10.0212 4.30962C10.3102 4.14673 10.6299 4.04553 10.96 4.01241C11.2901 3.97929 11.6235 4.01497 11.9391 4.11721C12.2547 4.21944 12.5457 4.386 12.7937 4.60637C13.0417 4.82675 13.2413 5.09614 13.38 5.39756C13.5186 5.69897 13.5932 6.02586 13.5992 6.35757C13.6051 6.68929 13.5422 7.01863 13.4144 7.3248C13.2866 7.63097 13.0967 7.90732 12.8567 8.13641C12.9599 8.40601 13.0407 8.68681 13.0991 8.97561C13.6417 8.57576 14.0441 8.01481 14.2491 7.37275C14.4541 6.7307 14.4511 6.04032 14.2406 5.40007C14.03 4.75981 13.6227 4.20238 13.0767 3.80724C12.5307 3.41211 11.8739 3.19946 11.1999 3.19961ZM4.39995 9.99961C4.39995 9.52685 4.49306 9.05872 4.67398 8.62195C4.8549 8.18518 5.12007 7.78832 5.45436 7.45403C5.78865 7.11974 6.18552 6.85456 6.62229 6.67364C7.05906 6.49273 7.52719 6.39961 7.99995 6.39961C8.47271 6.39961 8.94084 6.49273 9.37761 6.67364C9.81438 6.85456 10.2112 7.11974 10.5455 7.45403C10.8798 7.78832 11.145 8.18518 11.3259 8.62195C11.5068 9.05872 11.5999 9.52685 11.5999 9.99961C11.5999 10.9544 11.2207 11.8701 10.5455 12.5452C9.8704 13.2203 8.95473 13.5996 7.99995 13.5996C7.04517 13.5996 6.12949 13.2203 5.45436 12.5452C4.77923 11.8701 4.39995 10.9544 4.39995 9.99961ZM7.99995 5.59961C6.833 5.59961 5.71384 6.06318 4.88868 6.88834C4.06352 7.7135 3.59995 8.83266 3.59995 9.99961C3.59995 11.1666 4.06352 12.2857 4.88868 13.1109C5.71384 13.936 6.833 14.3996 7.99995 14.3996C9.1669 14.3996 10.2861 13.936 11.1112 13.1109C11.9364 12.2857 12.3999 11.1666 12.3999 9.99961C12.3999 8.83266 11.9364 7.7135 11.1112 6.88834C10.2861 6.06318 9.1669 5.59961 7.99995 5.59961ZM6.79995 7.99961C6.69386 7.99961 6.59212 8.04175 6.51711 8.11677C6.44209 8.19178 6.39995 8.29352 6.39995 8.39961C6.39995 8.5057 6.44209 8.60744 6.51711 8.68245C6.59212 8.75747 6.69386 8.79961 6.79995 8.79961H8.59195C8.51035 8.91641 8.42395 9.04761 8.33595 9.18761C7.94955 9.80521 7.51355 10.6644 7.40315 11.55C7.39528 11.6028 7.39804 11.6565 7.41127 11.7082C7.42449 11.7599 7.44791 11.8083 7.48015 11.8508C7.51239 11.8933 7.55279 11.9289 7.59899 11.9555C7.64519 11.9822 7.69625 11.9993 7.74916 12.0059C7.80207 12.0125 7.85578 12.0085 7.90711 11.9941C7.95844 11.9796 8.00637 11.9551 8.04807 11.9218C8.08977 11.8886 8.12441 11.8473 8.14994 11.8005C8.17547 11.7537 8.19139 11.7023 8.19675 11.6492C8.28635 10.9348 8.65035 10.194 9.01435 9.61161C9.21867 9.28587 9.44395 8.97374 9.68875 8.67721L9.69835 8.66601L9.70075 8.66281C9.75128 8.60499 9.78409 8.53384 9.79528 8.45787C9.80646 8.3819 9.79554 8.30432 9.76382 8.23439C9.73211 8.16445 9.68093 8.10513 9.6164 8.0635C9.55188 8.02187 9.47674 7.99969 9.39995 7.99961H6.79995Z" fill="#2F7CE5"/>
</g>
</svg>
