<svg width="50" height="50" viewBox="0 0 50 50" fill="none" xmlns="http://www.w3.org/2000/svg">
<rect width="50" height="50" rx="15" fill="#F7F7F7"/>
<path d="M33 13V13C33.93 13 34.395 13 34.7765 13.1022C35.8117 13.3796 36.6204 14.1883 36.8978 15.2235C37 15.605 37 16.07 37 17L37 20C37 20.4714 37 20.7071 36.8536 20.8535C36.7071 21 36.4714 21 36 21L29 21M33 13V13C32.07 13 31.605 13 31.2235 13.1022C30.1883 13.3796 29.3796 14.1883 29.1022 15.2235C29 15.605 29 16.07 29 17L29 21M33 13L17 13C15.1144 13 14.1716 13 13.5858 13.5858C13 14.1716 13 15.1144 13 17L13 37L17 35.6667L21 37L25 35.6667L29 37L29 21" stroke="#25215E" stroke-width="1.2"/>
</svg>
