<svg width="51" height="50" viewBox="0 0 51 50" fill="none" xmlns="http://www.w3.org/2000/svg">
<rect x="0.5" width="50" height="50" rx="20" fill="white" fill-opacity="0.1"/>
<path d="M3.83337 6.94461C3.83337 5.98688 4.21383 5.06838 4.89104 4.39117C5.56826 3.71395 6.48676 3.3335 7.44448 3.3335H14.6667V6.94461H7.44448V14.1668H3.83337V6.94461ZM47.1667 43.0557C47.1667 44.0134 46.7863 44.9319 46.109 45.6092C45.4318 46.2864 44.5133 46.6668 43.5556 46.6668H36.3334V43.0557H43.5556V35.8335H47.1667V43.0557ZM7.44448 46.6668C6.48676 46.6668 5.56826 46.2864 4.89104 45.6092C4.21383 44.9319 3.83337 44.0134 3.83337 43.0557V35.8335H7.44448V43.0557H14.6667V46.6668H7.44448ZM43.5556 3.3335C44.5133 3.3335 45.4318 3.71395 46.109 4.39117C46.7863 5.06838 47.1667 5.98688 47.1667 6.94461V14.1668H43.5556V6.94461H36.3334V3.3335H43.5556Z" fill="#CCE5FF"/>
<path d="M33.5695 14.5419C33.4584 14.5419 33.3473 14.5141 33.2501 14.4585C30.5834 13.0835 28.2778 12.5002 25.514 12.5002C22.764 12.5002 20.1528 13.153 17.7778 14.4585C17.4445 14.6391 17.0278 14.5141 16.8334 14.1808C16.7468 14.0183 16.7274 13.8284 16.7793 13.6518C16.8312 13.4752 16.9504 13.326 17.1112 13.2363C19.6945 11.8336 22.5278 11.1113 25.514 11.1113C28.4723 11.1113 31.0556 11.7641 33.889 13.2224C34.2362 13.403 34.3612 13.8197 34.1806 14.153C34.1257 14.2688 34.0392 14.3667 33.9311 14.4355C33.823 14.5043 33.6977 14.5412 33.5695 14.5419ZM13.6945 21.8335C13.5665 21.8347 13.4406 21.8004 13.3309 21.7345C13.2212 21.6685 13.1319 21.5734 13.0729 21.4598C13.0139 21.3461 12.9876 21.2184 12.9968 21.0907C13.006 20.963 13.0504 20.8403 13.1251 20.7363C14.5001 18.7919 16.2501 17.2641 18.3334 16.1947C22.6945 13.9447 28.2778 13.9308 32.6528 16.1808C34.7362 17.2502 36.4862 18.7641 37.8612 20.6947C37.9145 20.7693 37.9524 20.8538 37.9729 20.9432C37.9934 21.0325 37.996 21.1251 37.9805 21.2155C37.965 21.3059 37.9317 21.3923 37.8826 21.4698C37.8336 21.5473 37.7696 21.6143 37.6945 21.6669C37.3751 21.8891 36.9445 21.8197 36.7223 21.5002C35.506 19.7785 33.8904 18.3774 32.014 17.4169C28.0278 15.3752 22.9306 15.3752 18.9584 17.4308C17.0695 18.403 15.4862 19.7919 14.2362 21.5419C14.1251 21.7363 13.9167 21.8335 13.6945 21.8335ZM22.3751 38.5974C22.284 38.5985 22.1937 38.5806 22.11 38.5447C22.0262 38.5088 21.951 38.4558 21.889 38.3891C20.6806 37.1808 20.0278 36.403 19.0973 34.7224C18.139 33.0141 17.639 30.9308 17.639 28.6947C17.639 24.5697 21.1667 21.2085 25.5001 21.2085C29.8334 21.2085 33.3612 24.5697 33.3612 28.6947C33.3612 29.0835 33.0556 29.3891 32.6667 29.3891C32.2778 29.3891 31.9723 29.0835 31.9723 28.6947C31.9723 25.3335 29.0695 22.5974 25.5001 22.5974C21.9306 22.5974 19.0278 25.3335 19.0278 28.6947C19.0278 30.6947 19.4723 32.5419 20.3195 34.0419C21.2084 35.6391 21.8195 36.3197 22.889 37.403C23.1528 37.6808 23.1528 38.1113 22.889 38.3891C22.7362 38.528 22.5556 38.5974 22.3751 38.5974ZM32.3334 36.028C30.6806 36.028 29.2223 35.6113 28.0278 34.7919C25.9584 33.3891 24.7223 31.1113 24.7223 28.6947C24.7223 28.3058 25.0278 28.0002 25.4167 28.0002C25.8056 28.0002 26.1112 28.3058 26.1112 28.6947C26.1112 30.653 27.1112 32.5002 28.8056 33.6391C29.7917 34.3058 30.9445 34.6252 32.3334 34.6252C32.6667 34.6252 33.2223 34.5835 33.7778 34.4863C34.1528 34.4169 34.514 34.6669 34.5834 35.0558C34.6528 35.4308 34.4028 35.7919 34.014 35.8613C33.2223 36.0141 32.5278 36.028 32.3334 36.028ZM29.5417 38.8891C29.4862 38.8891 29.4167 38.8752 29.3612 38.8613C27.1528 38.2502 25.7084 37.4308 24.1945 35.9447C23.2352 34.9974 22.4745 33.8683 21.957 32.6234C21.4394 31.3785 21.1755 30.0428 21.1806 28.6947C21.1806 26.4447 23.0973 24.6113 25.4584 24.6113C27.8195 24.6113 29.7362 26.4447 29.7362 28.6947C29.7362 30.1808 31.0278 31.3891 32.6251 31.3891C34.2223 31.3891 35.514 30.1808 35.514 28.6947C35.514 23.4585 31.0001 19.2085 25.4445 19.2085C21.5001 19.2085 17.889 21.403 16.264 24.8058C15.7223 25.9308 15.4445 27.2502 15.4445 28.6947C15.4445 29.778 15.5417 31.4863 16.3751 33.7085C16.514 34.0697 16.3334 34.4724 15.9723 34.5974C15.6112 34.7363 15.2084 34.5419 15.0834 34.1947C14.4141 32.4381 14.0706 30.5744 14.0695 28.6947C14.0695 27.028 14.389 25.5141 15.014 24.1947C16.8612 20.3197 20.9584 17.8058 25.4445 17.8058C31.764 17.8058 36.9028 22.6808 36.9028 28.6808C36.9028 30.9308 34.9862 32.7641 32.6251 32.7641C30.264 32.7641 28.3473 30.9308 28.3473 28.6808C28.3473 27.1947 27.0556 25.9863 25.4584 25.9863C23.8612 25.9863 22.5695 27.1947 22.5695 28.6808C22.5695 31.0558 23.4862 33.278 25.1667 34.9447C26.4862 36.2502 27.7501 36.9724 29.7084 37.5141C30.0834 37.6113 30.2917 38.0002 30.1945 38.3613C30.1251 38.6808 29.8334 38.8891 29.5417 38.8891Z" fill="#CCE5FF"/>
</svg>
