<svg width="24" height="24" viewBox="0 0 24 24" fill="none" xmlns="http://www.w3.org/2000/svg">
<g id="healthicons:yes-outline">
<g id="Group">
<path id="Vector" fill-rule="evenodd" clip-rule="evenodd" d="M12 21C16.9705 21 21 16.9705 21 12C21 7.0295 16.9705 3 12 3C7.0295 3 3 7.0295 3 12C3 16.9705 7.0295 21 12 21ZM12 22C17.523 22 22 17.523 22 12C22 6.477 17.523 2 12 2C6.477 2 2 6.477 2 12C2 17.523 6.477 22 12 22Z" fill="#2F7CE5"/>
<path id="Vector_2" fill-rule="evenodd" clip-rule="evenodd" d="M17.3353 8.12901C17.4337 8.21788 17.4927 8.34217 17.4995 8.47456C17.5062 8.60695 17.4601 8.7366 17.3713 8.83501L10.6933 16.2155L6.65532 12.361C6.56465 12.2683 6.51351 12.1441 6.51271 12.0144C6.5119 11.8848 6.56148 11.7599 6.65098 11.6661C6.74049 11.5723 6.86293 11.517 6.99247 11.5117C7.12201 11.5065 7.24852 11.5518 7.34532 11.638L10.6403 14.783L16.6298 8.16451C16.6739 8.1158 16.7271 8.07625 16.7865 8.04813C16.8459 8.02001 16.9102 8.00386 16.9758 8.00061C17.0414 7.99736 17.107 8.00707 17.1689 8.02919C17.2308 8.05131 17.2876 8.0854 17.3363 8.12951L17.3353 8.12901Z" fill="#2F7CE5"/>
</g>
</g>
</svg>
