<svg width="21" height="20" viewBox="0 0 21 20" fill="none" xmlns="http://www.w3.org/2000/svg">
<path d="M10.4997 18.333C11.4164 18.333 12.1664 17.583 12.1664 16.6663H8.83307C8.83307 17.583 9.58307 18.333 10.4997 18.333ZM15.4997 9.16634C15.4997 6.60801 14.1414 4.46634 11.7497 3.89967V3.33301C11.7497 2.64134 11.1914 2.08301 10.4997 2.08301C9.80807 2.08301 9.24974 2.64134 9.24974 3.33301V3.89967C6.86641 4.46634 5.49974 6.59967 5.49974 9.16634V13.333L3.83307 14.9997V15.833H17.1664V14.9997L15.4997 13.333V9.16634ZM13.8331 14.1663H7.16641V9.16634C7.16641 7.09967 8.42474 5.41634 10.4997 5.41634C12.5747 5.41634 13.8331 7.09967 13.8331 9.16634V14.1663ZM6.81641 3.39967L5.62474 2.20801C3.62474 3.73301 2.30807 6.08301 2.19141 8.74967H3.85807C3.9171 7.69285 4.21376 6.66295 4.72596 5.73666C5.23816 4.81037 5.95271 4.01155 6.81641 3.39967ZM17.1414 8.74967H18.8081C18.6831 6.08301 17.3664 3.73301 15.3747 2.20801L14.1914 3.39967C15.0514 4.01456 15.7628 4.81427 16.2732 5.74006C16.7837 6.66585 17.0804 7.69423 17.1414 8.74967Z" fill="#00A0DD"/>
</svg>
