<svg width="19" height="19" viewBox="0 0 19 19" fill="none" xmlns="http://www.w3.org/2000/svg">
<path d="M13.8533 9.99968H13.8542C14.0861 9.99968 14.3155 9.98051 14.5417 9.94673V13.458V13.6651L14.6881 13.8116L16.125 15.2485V15.333H2.875V15.2485L4.31189 13.8116L4.45833 13.6651V13.458V8.70801C4.45833 6.47422 5.92078 4.50879 8.05871 3.87533L8.41667 3.76927V3.39593V3.16635C8.41667 2.57165 8.90531 2.08301 9.5 2.08301L9.50117 2.08301C9.65407 2.08265 9.80513 2.11641 9.94334 2.18183C9.95815 2.18885 9.97278 2.1962 9.98722 2.2039C9.37409 3.0193 9 4.03657 9 5.14551L9 5.14642C9.00233 6.43287 9.51441 7.66596 10.4241 8.57561C11.3337 9.48527 12.5668 9.99734 13.8533 9.99968ZM16.125 5.14551C16.125 6.39729 15.1059 7.41635 13.8542 7.41635C12.6024 7.41635 11.5833 6.39729 11.5833 5.14551C11.5833 3.89374 12.6024 2.87468 13.8542 2.87468C15.1059 2.87468 16.125 3.89374 16.125 5.14551ZM10.4631 17.1247C10.2838 17.4726 9.92172 17.708 9.5 17.708C9.21268 17.708 8.93713 17.5939 8.73397 17.3907C8.65503 17.3118 8.58954 17.2219 8.53895 17.1247H10.4631Z" fill="#989898" stroke="#7B7979"/>
<circle cx="13.7209" cy="4.72089" r="3.2209" fill="#00A0DD" stroke="#7B7979"/>
<path d="M13.8296 6.06907C13.6175 6.06907 13.4286 6.03261 13.2629 5.95969C13.0981 5.88583 12.9679 5.78451 12.8722 5.65572C12.7776 5.52598 12.7288 5.37636 12.7259 5.20685H13.3453C13.349 5.27788 13.3722 5.34038 13.4149 5.39435C13.4584 5.44738 13.5162 5.48858 13.5882 5.51793C13.6601 5.54729 13.7411 5.56197 13.8311 5.56197C13.9248 5.56197 14.0077 5.5454 14.0796 5.51225C14.1516 5.47911 14.2079 5.43318 14.2487 5.37447C14.2894 5.31576 14.3097 5.24805 14.3097 5.17134C14.3097 5.09369 14.288 5.02504 14.2444 4.96538C14.2018 4.90477 14.1402 4.85742 14.0597 4.82333C13.9802 4.78924 13.8855 4.77219 13.7757 4.77219H13.5044V4.32049H13.7757C13.8685 4.32049 13.9504 4.30439 14.0214 4.27219C14.0934 4.24 14.1492 4.19549 14.189 4.13867C14.2288 4.08091 14.2487 4.01367 14.2487 3.93697C14.2487 3.86405 14.2311 3.80013 14.1961 3.74521C14.162 3.68933 14.1137 3.64577 14.0512 3.61452C13.9897 3.58327 13.9177 3.56765 13.8353 3.56765C13.752 3.56765 13.6758 3.5828 13.6066 3.6131C13.5375 3.64246 13.4821 3.6846 13.4404 3.73952C13.3988 3.79445 13.3765 3.85884 13.3737 3.93271H12.7842C12.787 3.76509 12.8348 3.61736 12.9276 3.48952C13.0204 3.36168 13.1454 3.26178 13.3026 3.18981C13.4608 3.11689 13.6393 3.08043 13.8382 3.08043C14.0389 3.08043 14.2146 3.11689 14.3651 3.18981C14.5157 3.26272 14.6327 3.36121 14.716 3.48526C14.8003 3.60837 14.8419 3.74663 14.841 3.90004C14.8419 4.06291 14.7913 4.1988 14.689 4.30771C14.5877 4.41661 14.4556 4.48574 14.2927 4.51509V4.53782C14.5067 4.56528 14.6696 4.63962 14.7813 4.76083C14.894 4.8811 14.9499 5.03166 14.949 5.21254C14.9499 5.37826 14.9021 5.52551 14.8055 5.6543C14.7098 5.78308 14.5777 5.88441 14.4092 5.95827C14.2406 6.03214 14.0474 6.06907 13.8296 6.06907Z" fill="white"/>
</svg>
