<svg width="23" height="18" viewBox="0 0 23 18" fill="none" xmlns="http://www.w3.org/2000/svg">
<path d="M21.5 7.929V14.5C21.5 15.0304 21.2893 15.5391 20.9142 15.9142C20.5391 16.2893 20.0304 16.5 19.5 16.5H6.5C5.96957 16.5 5.46086 16.2893 5.08579 15.9142C4.71071 15.5391 4.5 15.0304 4.5 14.5V13M21.5 7.929V6.5C21.5 5.96957 21.2893 5.46086 20.9142 5.08579C20.5391 4.71071 20.0304 4.5 19.5 4.5H18.5M21.5 7.929H18.5" stroke="#878787" stroke-width="1.5" stroke-linecap="round" stroke-linejoin="round"/>
<path d="M21.5 7.929V14.5C21.5 15.0304 21.2893 15.5391 20.9142 15.9142C20.5391 16.2893 20.0304 16.5 19.5 16.5H6.5C5.96957 16.5 5.46086 16.2893 5.08579 15.9142C4.71071 15.5391 4.5 15.0304 4.5 14.5V13M21.5 7.929V6.5C21.5 5.96957 21.2893 5.46086 20.9142 5.08579C20.5391 4.71071 20.0304 4.5 19.5 4.5H18.5M21.5 7.929H18.5" stroke="black" stroke-opacity="0.2" stroke-width="1.5" stroke-linecap="round" stroke-linejoin="round"/>
<path d="M18.5 4.5V11C18.5 11.5304 18.2893 12.0391 17.9142 12.4142C17.5391 12.7893 17.0304 13 16.5 13H3.5C2.96957 13 2.46086 12.7893 2.08579 12.4142C1.71071 12.0391 1.5 11.5304 1.5 11V3C1.5 2.46957 1.71071 1.96086 2.08579 1.58579C2.46086 1.21071 2.96957 1 3.5 1H16.5C17.0304 1 17.5391 1.21071 17.9142 1.58579C18.2893 1.96086 18.5 2.46957 18.5 3V4.5ZM18.5 4.5H5" stroke="#878787" stroke-width="1.5" stroke-linecap="round" stroke-linejoin="round"/>
<path d="M18.5 4.5V11C18.5 11.5304 18.2893 12.0391 17.9142 12.4142C17.5391 12.7893 17.0304 13 16.5 13H3.5C2.96957 13 2.46086 12.7893 2.08579 12.4142C1.71071 12.0391 1.5 11.5304 1.5 11V3C1.5 2.46957 1.71071 1.96086 2.08579 1.58579C2.46086 1.21071 2.96957 1 3.5 1H16.5C17.0304 1 17.5391 1.21071 17.9142 1.58579C18.2893 1.96086 18.5 2.46957 18.5 3V4.5ZM18.5 4.5H5" stroke="black" stroke-opacity="0.2" stroke-width="1.5" stroke-linecap="round" stroke-linejoin="round"/>
</svg>
