<svg width="21" height="20" viewBox="0 0 21 20" fill="none" xmlns="http://www.w3.org/2000/svg">
<path d="M17.5 19H5.5C4.43913 19 3.42172 18.5786 2.67157 17.8284C1.92143 17.0783 1.5 16.0609 1.5 15V3C1.5 2.46957 1.71071 1.96086 2.08579 1.58579C2.46086 1.21071 2.96957 1 3.5 1H13.5C14.0304 1 14.5391 1.21071 14.9142 1.58579C15.2893 1.96086 15.5 2.46957 15.5 3V16C15.5 17.657 15.843 19 17.5 19Z" stroke="#ACACAC" stroke-width="2" stroke-linecap="round" stroke-linejoin="round"/>
<path d="M17.5 19H5.5C4.43913 19 3.42172 18.5786 2.67157 17.8284C1.92143 17.0783 1.5 16.0609 1.5 15V3C1.5 2.46957 1.71071 1.96086 2.08579 1.58579C2.46086 1.21071 2.96957 1 3.5 1H13.5C14.0304 1 14.5391 1.21071 14.9142 1.58579C15.2893 1.96086 15.5 2.46957 15.5 3V16C15.5 17.657 15.843 19 17.5 19Z" stroke="black" stroke-opacity="0.32" stroke-width="2" stroke-linecap="round" stroke-linejoin="round"/>
<path d="M19.5 8C19.5 7.46957 19.2893 6.96086 18.9142 6.58579C18.5391 6.21071 18.0304 6 17.5 6H15.5V16.5C15.5 17.88 16.12 19 17.5 19C18.88 19 19.5 17.88 19.5 16.5V8Z" stroke="#ACACAC" stroke-width="2" stroke-linecap="round" stroke-linejoin="round"/>
<path d="M19.5 8C19.5 7.46957 19.2893 6.96086 18.9142 6.58579C18.5391 6.21071 18.0304 6 17.5 6H15.5V16.5C15.5 17.88 16.12 19 17.5 19C18.88 19 19.5 17.88 19.5 16.5V8Z" stroke="black" stroke-opacity="0.32" stroke-width="2" stroke-linecap="round" stroke-linejoin="round"/>
<path d="M11.5 9H5.5M11.5 5H5.5M8.5 13H5.5" stroke="#ACACAC" stroke-width="2" stroke-linecap="round"/>
<path d="M11.5 9H5.5M11.5 5H5.5M8.5 13H5.5" stroke="black" stroke-opacity="0.32" stroke-width="2" stroke-linecap="round"/>
</svg>
