<svg width="340" height="181" viewBox="0 0 340 181" fill="none" xmlns="http://www.w3.org/2000/svg">
<path d="M361.392 166.955C361.178 165.186 360.53 163.603 359.376 162.298C354.421 156.81 343.951 161.077 336.515 159.255C326.656 156.837 324.783 145.298 321.694 134.662C319.204 126.025 309.164 124.071 300.437 130.47C286.4 140.754 273.173 152.726 261.22 165.973C259.091 168.324 256.191 171.022 253.918 170.166C250.755 168.977 253.328 163.254 256.029 159.738C271.171 140.045 286.313 120.352 301.456 100.66C302.819 98.8862 302.846 96.6261 301.528 95.5961C300.128 94.526 297.78 95.2321 296.412 97.1537L283.443 115.341C281.453 118.134 277.854 117.584 278.097 114.509C278.594 108.442 280.768 101.842 282.185 95.5732C290.113 60.4961 274.494 31.7136 259.323 6.23122C257.951 3.94157 256.477 1.54395 253.93 0.721875C248.86 -0.903769 242.477 4.20235 237.45 8.84722C236.361 9.8516 235.259 10.8961 234.529 12.1873C231.615 17.4602 237.174 20.8205 241.658 22.2305C269.348 30.9402 283.293 63.4013 276.102 97.3199C275.444 100.392 271.357 101.329 271.059 98.4791C267.932 68.1387 250.862 43.4175 225.228 33.4895C215.204 29.596 203.577 27.5625 197.097 19.0778C195.971 17.6185 195.017 15.9675 194.125 14.2641C192.383 10.9683 186.768 15.0919 188.315 18.5361C191.861 26.446 197.982 32.5382 205.889 35.5229C216.209 39.4254 230.699 39.8725 232.787 51.7109C235.158 65.0681 218.753 83.4714 224.281 94.9455C225.791 98.081 228.633 101.827 225.699 105.182C223.408 107.784 220.08 106.919 217.506 106.202C194.612 99.8624 166.038 128.372 140.278 130.893C131.866 131.713 124.13 129.676 115.73 130.48C110.424 130.972 104.511 132.981 99.5673 136.882C95.0376 140.455 93.5955 146.424 88.1752 147.155C78.5373 148.463 72.763 139.783 63.6797 139.381C54.1699 138.966 43.494 147.658 33.9141 147.567C25.0215 147.495 19.6356 139.988 15.7669 132.504C8.65292 118.772 3.68359 101.863 9.68712 83.8027C11.1744 79.34 14.6142 73.9309 18.6711 73.9088C20.8418 73.8976 22.2699 75.5481 23.9304 76.6241C31.212 81.3136 43.1982 74.9644 51.902 77.1673C59.9712 79.1916 63.8034 88.1418 71.7703 90.3885C79.6672 92.6044 89.4091 87.7793 98.4139 84.088C123.287 73.936 149.004 71.9897 170.584 78.6207C171.864 79.0117 173.2 79.4983 173.776 80.7204C174.785 82.8715 172.821 86.3188 170.373 87.9079C167.925 89.497 165.237 89.7279 162.705 89.8814C155.587 90.3169 148.498 90.5733 141.476 90.6043C138.724 90.6314 137.344 95.0785 139.989 95.422C152.932 97.09 166.47 95.8615 179.515 87.5972C181.284 86.478 183.156 85.087 184.097 83.1534C186.144 78.9866 182.715 75.785 179.456 74.2905C163.812 67.1138 144.563 66.0503 125.142 71.2637C110.304 75.2536 94.7888 82.884 81.0137 81.26C72.2832 80.2273 65.226 75.5654 57.6315 72.0957C44.4517 66.0808 29.1606 63.6739 13.1516 65.0528C11.3795 65.2056 9.43734 65.476 7.79437 66.7464C5.67632 68.397 4.74194 71.1981 4.10196 73.7025C-1.64403 95.8229 -0.282922 117.853 7.89271 134.997C12.7287 145.156 21.1863 154.108 33.3182 152.693C42.5453 151.613 52.5717 144.633 61.1365 146.015C67.6368 147.062 71.659 152.767 77.8255 154.586C85.0144 156.691 94.8297 153.598 102.303 154.259C105.035 154.494 107.508 150.719 105.988 148.615C105.138 147.427 104.576 146.115 104.783 144.506C105.523 138.633 113.777 137.206 118.952 137.8C131.299 139.194 144.826 137.197 158.067 132.004C170.816 127 183.183 119.157 195.972 114.718C208.761 110.279 222.958 109.908 229.946 118.825C232.837 122.509 233.727 129.331 229.271 133.546C227.165 135.536 224.495 136.314 221.997 136.899C196.895 142.862 172.129 141.134 147.159 151.335C132.192 157.452 117.694 167.672 102.625 171.832C90.5727 175.162 78.6221 174.314 69.1639 169.453C60.7084 165.117 53.8884 157.577 43.7225 156.917C35.3437 156.368 26.2863 160.575 17.5741 165.464C15.3025 166.738 14.5241 169.842 16.1435 171.088L16.1897 171.125C17.0802 171.812 18.4605 171.675 19.64 170.794C25.962 166.096 33.9807 162.097 37.6015 166.669C40.4363 170.257 38.2321 176.681 37.364 182.146C37.3171 182.489 37.2702 182.832 37.2349 183.184C36.8836 187.365 42.8014 186.297 43.4274 182.058C43.9177 178.698 45.3486 175.585 48.3642 173.689C52.8571 170.873 57.2104 173.37 60.8812 175.345C81.053 186.198 110.016 178.611 135.322 165.029C146.357 159.11 157.445 151.965 168.755 149.587C180.972 147.023 192.083 150.316 204.112 149.148C211.869 148.387 219.975 145.725 227.623 141.43C232.3 138.811 237.227 135.049 239.197 129.959C241.857 123.038 237.927 117.407 235.184 112.117C228.693 99.619 228.755 82.2769 235.353 65.9849C237.574 60.4873 244.105 53.7509 247.183 57.1783C249.653 59.9424 245.986 65.4228 243.686 69.7164C236.394 83.3229 243.241 96.1574 245.656 108.891C248.315 122.834 243.93 141.455 231.137 152.483C221.018 161.214 208.397 163.074 197.407 162.565C192.564 162.338 187.792 161.762 182.99 161.365C179.914 161.108 177.991 166.21 180.924 166.835C190.498 168.898 200.573 169.79 210.95 169.454C215.58 169.308 220.397 168.88 225.106 166.718C234.281 162.53 241.237 152.634 245.705 143.004C254.797 123.36 256.441 101.91 250.09 85.543C248.734 82.0739 247.66 76.8787 251.333 74.1153C255.395 71.0552 258.679 75.7636 259.645 79.9339C262.325 91.4352 264.354 103.277 265.734 115.384C266.626 123.223 267.13 131.688 263.511 139.996C258.419 151.662 246.066 160.836 243.041 172.738C242.51 174.823 242.331 177.012 243.205 178.548C244.966 181.631 249.853 180.525 253.699 178.61C271.509 169.749 284.327 150.021 301.025 137.811C303.274 136.163 305.661 134.627 308.1 134.044C315.248 132.34 319.412 139.147 320.995 145.814C322.578 152.482 323.409 160.348 328.93 163.399C333.135 165.727 338.95 164.551 344.136 164.8C349.323 165.048 354.674 167.838 353.999 173.584C353.586 177.107 350.97 180.54 348.36 183.469C331.436 202.521 307.938 214.839 286.737 215.787C270.726 216.505 256.293 211.109 240.009 213.257C231.028 214.432 221.688 217.88 213.014 217.628C193.902 217.08 181.473 198.736 161.548 202.329C158.064 202.962 153.726 205.041 152.536 208.778C151.793 211.15 152.649 213.255 153.538 215.081C158.246 224.809 163.89 233.841 170.391 242.063C172.451 244.676 174.69 247.28 177.929 248.302C181.462 249.432 185.749 248.554 189.846 247.652C217.896 241.514 246.001 234.762 274.115 227.382C300.492 220.539 328.922 211.866 350.391 189.836C356.615 183.437 362.211 173.796 361.392 166.955ZM254.261 19.4684C253.733 19.6541 252.646 19.5439 252.07 19.387C248.988 18.6179 246.207 17.3298 243.741 15.5074C243.058 15.0109 242.275 14.283 242.164 13.3568C241.963 11.9028 243.306 11.0773 244.545 10.928C247.652 10.5764 251.265 12.8609 253.162 14.6839C253.724 15.2607 256.961 18.512 254.261 19.4684ZM245.411 226.76C237.151 234.495 228.61 236.352 219.671 236.242C212.262 236.141 207.174 236.149 200.76 236.793C193.644 237.51 186.06 239.119 180.275 235.78L180.288 235.765C176.663 233.116 173.98 231.044 172.237 229.573C169.468 227.229 158.201 216.433 161.475 211.018C163.62 207.487 168.916 208.711 171.162 209.317C174.489 210.206 177.867 210.984 181.285 211.642C186.482 212.635 190.323 215.203 193.882 218.788C195.102 219.916 196.268 220.876 197.367 221.705C203.27 226.127 211.327 227.077 219.739 224.813C220.972 224.481 222.675 223.893 224.874 223.042C226.448 222.426 230.005 221.015 235.509 218.806C238.346 217.655 241.513 216.92 244.097 217.341C245.772 217.617 248.148 218.557 248.634 220.366C249.171 222.443 247.124 225.165 245.411 226.76Z" fill="white" fill-opacity="0.32"/>
</svg>
