<svg width="16" height="16" viewBox="0 0 16 16" fill="none" xmlns="http://www.w3.org/2000/svg">
<g id="iconoir:internet" clip-path="url(#clip0_946_28051)">
<g id="Group">
<path id="Vector" d="M14.6668 8.00065C14.6668 4.31865 11.6822 1.33398 8.00016 1.33398C4.31816 1.33398 1.3335 4.31865 1.3335 8.00065C1.3335 11.6827 4.31816 14.6673 8.00016 14.6673" stroke="#2F7CE5" stroke-linecap="round" stroke-linejoin="round"/>
<path id="Vector_2" d="M8.66675 1.36719C8.66675 1.36719 10.6668 4.00052 10.6668 8.00052M7.33342 14.6339C7.33342 14.6339 5.33342 12.0005 5.33342 8.00052C5.33342 4.00052 7.33342 1.36719 7.33342 1.36719M1.75342 10.3339H8.00008M1.75342 5.66719H14.2468" stroke="#2F7CE5" stroke-linecap="round" stroke-linejoin="round"/>
<path id="Vector_3" d="M14.5861 11.9444C14.9155 12.1471 14.8948 12.6398 14.5561 12.6784L12.8448 12.8724L12.0775 14.4138C11.9255 14.7198 11.4555 14.5698 11.3775 14.1911L10.5408 10.1138C10.4748 9.79377 10.7628 9.59243 11.0408 9.76377L14.5861 11.9444Z" stroke="#2F7CE5"/>
</g>
</g>
<defs>
<clipPath id="clip0_946_28051">
<rect width="16" height="16" fill="white"/>
</clipPath>
</defs>
</svg>
