<svg width="50" height="50" viewBox="0 0 50 50" fill="none" xmlns="http://www.w3.org/2000/svg">
<rect width="50" height="50" rx="15" fill="#F7F7F7"/>
<path fill-rule="evenodd" clip-rule="evenodd" d="M24.9996 21.8897C25.7076 21.8893 26.3929 22.1393 26.9343 22.5955C27.4757 23.0517 27.8383 23.6846 27.9581 24.3824C28.0778 25.0802 27.9468 25.7978 27.5884 26.4084C27.23 27.0189 26.6672 27.4831 25.9996 27.7187V32.8887H23.9996V27.7187C23.3325 27.4825 22.7703 27.0182 22.4123 26.4077C22.0543 25.7972 21.9236 25.0799 22.0432 24.3823C22.1628 23.6848 22.5252 23.052 23.0661 22.5957C23.6071 22.1394 24.2919 21.889 24.9996 21.8887V21.8897ZM24.9996 23.8897C25.2648 23.8897 25.5192 23.995 25.7067 24.1826C25.8943 24.3701 25.9996 24.6245 25.9996 24.8897C25.9996 25.1549 25.8943 25.4092 25.7067 25.5968C25.5192 25.7843 25.2648 25.8897 24.9996 25.8897C24.7344 25.8897 24.4801 25.7843 24.2925 25.5968C24.105 25.4092 23.9996 25.1549 23.9996 24.8897C23.9996 24.6245 24.105 24.3701 24.2925 24.1826C24.4801 23.995 24.7344 23.8897 24.9996 23.8897Z" fill="#25215E"/>
<path d="M20.05 19.94C19.399 20.5893 18.8828 21.3609 18.531 22.2104C18.1792 23.0599 17.9987 23.9705 18 24.89C18 27.067 18.994 29.012 20.554 30.296L21.977 28.872C21.3622 28.4061 20.8638 27.8041 20.5208 27.1132C20.1777 26.4223 19.9995 25.6613 20 24.89C20 23.51 20.56 22.26 21.464 21.355L20.05 19.94ZM28.536 21.353C29.0011 21.817 29.3698 22.3683 29.621 22.9753C29.8723 23.5823 30.0011 24.233 30 24.89C30 26.516 29.224 27.96 28.023 28.873L29.446 30.297C30.2455 29.6408 30.8893 28.8153 31.331 27.8801C31.7727 26.9449 32.0012 25.9232 32 24.889C32.0013 23.9695 31.8208 23.0589 31.469 22.2094C31.1172 21.3599 30.601 20.5883 29.95 19.939L28.536 21.353Z" fill="#25215E"/>
<path d="M14 24.8899C13.9982 23.4448 14.2818 22.0135 14.8348 20.6784C15.3877 19.3433 16.199 18.1305 17.222 17.1099L18.636 18.5249C17.7989 19.3598 17.1351 20.3519 16.6827 21.4443C16.2304 22.5366 15.9983 23.7076 16 24.8899C15.9985 26.072 16.2306 27.2428 16.6829 28.3349C17.1353 29.4271 17.799 30.419 18.636 31.2539L17.222 32.6679C16.199 31.6476 15.3878 30.4352 14.8349 29.1004C14.2819 27.7656 13.9982 26.3347 14 24.8899ZM32.778 32.6669C33.8009 31.6467 34.6121 30.4345 35.1651 29.0999C35.718 27.7652 36.0017 26.3345 36 24.8899C36 21.8519 34.769 19.1019 32.778 17.1119L31.364 18.5259C32.201 19.3607 32.8647 20.3527 33.3171 21.4448C33.7695 22.537 34.0015 23.7077 34 24.8899C34.0015 26.072 33.7695 27.2428 33.3171 28.3349C32.8647 29.4271 32.201 30.419 31.364 31.2539L32.778 32.6669Z" fill="#25215E"/>
</svg>
