<svg width="16" height="16" viewBox="0 0 16 16" fill="none" xmlns="http://www.w3.org/2000/svg">
<g id="solar:tv-outline" clip-path="url(#clip0_946_28072)">
<g id="Group">
<path id="Vector" fill-rule="evenodd" clip-rule="evenodd" d="M10.3255 0.952656C10.3754 0.995408 10.4163 1.04757 10.4461 1.10616C10.4758 1.16476 10.4936 1.22863 10.4987 1.29413C10.5037 1.35964 10.4957 1.42549 10.4753 1.48792C10.4548 1.55035 10.4223 1.60814 10.3795 1.65799L8.8015 3.49932H10.7035C11.6148 3.49932 12.3502 3.49932 12.9282 3.57732C13.5282 3.65732 14.0335 3.83066 14.4348 4.23132C14.8362 4.63266 15.0082 5.13799 15.0895 5.73799C15.1668 6.31599 15.1668 7.05132 15.1668 7.96266V10.7027C15.1668 11.614 15.1668 12.3493 15.0895 12.9273C15.0082 13.5273 14.8362 14.0327 14.4348 14.434C14.0335 14.8353 13.5282 15.0073 12.9282 15.0887C12.3502 15.166 11.6148 15.166 10.7035 15.166H5.29683C4.3855 15.166 3.65016 15.166 3.07216 15.0887C2.47216 15.0073 1.96683 14.8353 1.5655 14.434C1.16416 14.0327 0.992163 13.5273 0.911496 12.9273C0.833496 12.3493 0.833496 11.614 0.833496 10.7027V7.96266C0.833496 7.05132 0.833496 6.31599 0.911496 5.73799C0.991496 5.13799 1.16483 4.63266 1.5655 4.23132C1.96683 3.82999 2.47216 3.65799 3.07216 3.57732C3.65016 3.49932 4.3855 3.49932 5.29683 3.49932H7.19883L5.62016 1.65799C5.57489 1.60856 5.54003 1.55052 5.51763 1.48735C5.49524 1.42417 5.48578 1.35713 5.48982 1.29022C5.49385 1.22331 5.5113 1.1579 5.54112 1.09787C5.57094 1.03784 5.61252 0.984415 5.6634 0.940778C5.71428 0.897141 5.77342 0.86418 5.83729 0.843854C5.90117 0.823529 5.96847 0.816254 6.03522 0.822462C6.10196 0.828669 6.16677 0.848234 6.2258 0.879991C6.28483 0.911748 6.33687 0.95505 6.37883 1.00732L8.00016 2.89799L9.62016 1.00732C9.66291 0.957441 9.71508 0.916473 9.77367 0.886761C9.83226 0.857048 9.89614 0.839174 9.96164 0.834159C10.0271 0.829144 10.093 0.837087 10.1554 0.857534C10.2179 0.87798 10.2756 0.91053 10.3255 0.953323V0.952656ZM11.1668 4.49932V14.166C11.8642 14.1633 12.3842 14.1527 12.7948 14.0973C13.2842 14.0313 13.5428 13.9107 13.7275 13.7267C13.9122 13.542 14.0322 13.2833 14.0982 12.7933C14.1655 12.29 14.1668 11.6227 14.1668 10.666V7.99932C14.1668 7.04266 14.1655 6.37466 14.0982 5.87132C14.0322 5.38199 13.9115 5.12332 13.7275 4.93866C13.5428 4.75399 13.2842 4.63399 12.7942 4.56799C12.3842 4.51266 11.8642 4.50132 11.1668 4.49932ZM10.1668 14.166V4.49932H5.3335C4.37683 4.49932 3.70883 4.50066 3.2055 4.56799C2.71616 4.63399 2.4575 4.75466 2.27283 4.93866C2.08816 5.12332 1.96816 5.38199 1.90216 5.87199C1.83483 6.37466 1.8335 7.04266 1.8335 7.99932V10.666C1.8335 11.6227 1.83483 12.29 1.90216 12.794C1.96816 13.2833 2.08883 13.542 2.27283 13.7267C2.4575 13.9113 2.71616 14.0313 3.20616 14.0973C3.70883 14.1647 4.37683 14.166 5.3335 14.166H10.1668Z" fill="#2F7CE5"/>
<path id="Vector_2" d="M13.3333 10.6654C13.3333 10.4886 13.2631 10.319 13.1381 10.194C13.013 10.0689 12.8435 9.9987 12.6667 9.9987C12.4899 9.9987 12.3203 10.0689 12.1953 10.194C12.0702 10.319 12 10.4886 12 10.6654C12 10.8422 12.0702 11.0117 12.1953 11.1368C12.3203 11.2618 12.4899 11.332 12.6667 11.332C12.8435 11.332 13.013 11.2618 13.1381 11.1368C13.2631 11.0117 13.3333 10.8422 13.3333 10.6654ZM13.3333 7.9987C13.3333 7.82189 13.2631 7.65232 13.1381 7.52729C13.013 7.40227 12.8435 7.33203 12.6667 7.33203C12.4899 7.33203 12.3203 7.40227 12.1953 7.52729C12.0702 7.65232 12 7.82189 12 7.9987C12 8.17551 12.0702 8.34508 12.1953 8.4701C12.3203 8.59513 12.4899 8.66536 12.6667 8.66536C12.8435 8.66536 13.013 8.59513 13.1381 8.4701C13.2631 8.34508 13.3333 8.17551 13.3333 7.9987Z" fill="#2F7CE5"/>
</g>
</g>
<defs>
<clipPath id="clip0_946_28072">
<rect width="16" height="16" fill="white"/>
</clipPath>
</defs>
</svg>
