<svg width="16" height="16" viewBox="0 0 16 16" fill="none" xmlns="http://www.w3.org/2000/svg">
<g id="healthicons:electricity-outline">
<g id="Group">
<path id="Vector" d="M8.3335 4L6.3335 7H7.66683V9L9.66683 6H8.3335V4Z" fill="#2F7CE5"/>
<path id="Vector_2" fill-rule="evenodd" clip-rule="evenodd" d="M12.6367 6.42499C12.5356 7.28344 12.1905 8.09492 11.6424 8.76332C11.3217 9.15499 10.5067 10.274 10.3334 11.0007H5.66672C5.49338 10.2733 4.67738 9.15432 4.35672 8.76232C3.80887 8.09361 3.46415 7.2819 3.36338 6.42332C3.26404 5.56657 3.41355 4.69934 3.79405 3.92532C4.17812 3.14539 4.77514 2.49013 5.51605 2.03532C6.26339 1.57606 7.12354 1.33327 8.00072 1.33399C8.88005 1.33399 9.74138 1.57732 10.4854 2.03632C11.2261 2.4913 11.8229 3.14668 12.2067 3.92665C12.5871 4.70084 12.7363 5.56819 12.6367 6.42499ZM9.86105 10.334H6.13872C5.99672 10.0063 5.80705 9.67799 5.63038 9.39899C5.39791 9.03233 5.14507 8.679 4.87305 8.34065C4.40579 7.77053 4.11173 7.07842 4.02572 6.34632C3.94104 5.61671 4.06834 4.87815 4.39238 4.21899C4.72108 3.55203 5.23189 2.99176 5.86572 2.60299C6.50792 2.20848 7.24702 1.99996 8.00072 2.00065C8.75738 2.00065 9.49738 2.21032 10.1357 2.60399C10.7693 2.99284 11.2799 3.55311 11.6084 4.21999C11.9323 4.87932 12.0593 5.618 11.9744 6.34765C11.8881 7.07959 11.5938 7.77146 11.1264 8.34132C10.8542 8.67949 10.6015 9.03284 10.3694 9.39965C10.1927 9.67865 10.0031 10.0063 9.86105 10.334Z" fill="#2F7CE5"/>
<path id="Vector_3" d="M5.6665 12.0013C5.6665 11.9129 5.70162 11.8281 5.76413 11.7656C5.82665 11.7031 5.91143 11.668 5.99984 11.668H9.99984C10.0882 11.668 10.173 11.7031 10.2355 11.7656C10.2981 11.8281 10.3332 11.9129 10.3332 12.0013C10.3332 12.0897 10.2981 12.1745 10.2355 12.237C10.173 12.2995 10.0882 12.3346 9.99984 12.3346H5.99984C5.91143 12.3346 5.82665 12.2995 5.76413 12.237C5.70162 12.1745 5.6665 12.0897 5.6665 12.0013Z" fill="#2F7CE5"/>
<path id="Vector_4" fill-rule="evenodd" clip-rule="evenodd" d="M5.6665 13H10.3332V14C10.3332 14.1768 10.2629 14.3464 10.1379 14.4714C10.0129 14.5964 9.84331 14.6667 9.6665 14.6667H6.33317C6.15636 14.6667 5.98679 14.5964 5.86177 14.4714C5.73674 14.3464 5.6665 14.1768 5.6665 14V13ZM6.33317 13.6667H9.6665V14H6.33317V13.6667Z" fill="#2F7CE5"/>
</g>
</g>
</svg>
