<svg width="50" height="50" viewBox="0 0 50 50" fill="none" xmlns="http://www.w3.org/2000/svg">
<rect width="50" height="50" rx="15" fill="#F7F7F7"/>
<path d="M17.6429 27C16.9173 25.8082 16.5 24.4118 16.5 22.9189C16.5 18.5454 20.0817 15 24.5 15C28.9183 15 32.5 18.5454 32.5 22.9189C32.5 24.4118 32.0827 25.8082 31.3571 27" stroke="#25215E" stroke-width="2" stroke-linecap="round"/>
<path d="M19.8829 30.0982C19.791 29.8216 19.7451 29.6833 19.7504 29.5713C19.7617 29.3343 19.9111 29.1262 20.1316 29.0405C20.2358 29 20.381 29 20.6716 29H28.3284C28.619 29 28.7642 29 28.8684 29.0405C29.0889 29.1262 29.2383 29.3343 29.2496 29.5713C29.2549 29.6833 29.209 29.8216 29.1171 30.0982C28.9473 30.6094 28.8624 30.8651 28.7315 31.072C28.4572 31.5056 28.0272 31.8167 27.5306 31.9408C27.2935 32 27.025 32 26.4881 32H22.5119C21.9749 32 21.7065 32 21.4694 31.9408C20.9728 31.8167 20.5428 31.5056 20.2685 31.072C20.1375 30.8651 20.0527 30.6094 19.8829 30.0982Z" stroke="#25215E" stroke-width="2"/>
<path d="M27.5 32L27.3707 32.6466C27.2293 33.3537 27.1586 33.7072 27.0001 33.9866C26.7552 34.4185 26.3582 34.7439 25.8866 34.8994C25.5816 35 25.2211 35 24.5 35C23.7789 35 23.4184 35 23.1134 34.8994C22.6418 34.7439 22.2448 34.4185 21.9999 33.9866C21.8414 33.7072 21.7707 33.3537 21.6293 32.6466L21.5 32" stroke="#25215E" stroke-width="2"/>
<path d="M25.0521 19.5L23.5305 21.1946C23.3214 21.4274 23.4486 21.7994 23.7566 21.8554L25.2453 22.126C25.5732 22.1857 25.6886 22.5966 25.4398 22.8183L23.5521 24.5" stroke="#25215E" stroke-width="2" stroke-linecap="round" stroke-linejoin="round"/>
</svg>
