<svg width="18" height="18" viewBox="0 0 18 18" fill="none" xmlns="http://www.w3.org/2000/svg">
<g id="fluent:call-28-filled">
<path id="Vector" d="M5.04662 1.73952L6.29184 1.3641C6.7028 1.24039 7.14473 1.2704 7.53519 1.44854C7.92565 1.62668 8.23798 1.94078 8.41391 2.33224L9.28691 4.27367C9.43843 4.61048 9.48066 4.98628 9.40768 5.34832C9.33469 5.71035 9.15016 6.04044 8.87998 6.29224L7.5512 7.53038C7.37312 7.69945 7.50812 8.35838 8.1587 9.48595C8.80991 10.6142 9.31327 11.0603 9.54534 10.9909L11.2862 10.4586C11.6391 10.3507 12.0169 10.3559 12.3666 10.4734C12.7164 10.591 13.0206 10.8151 13.2366 11.1143L14.4773 12.834C14.7279 13.1812 14.844 13.6076 14.8039 14.034C14.7638 14.4603 14.5703 14.8576 14.2594 15.1521L13.3003 16.0605C12.9906 16.3537 12.6088 16.5595 12.1936 16.657C11.7785 16.7544 11.3449 16.74 10.9371 16.6152C8.92755 16 7.06648 14.1743 5.32884 11.1638C3.58734 8.14881 2.92969 5.60567 3.38805 3.52795C3.4805 3.10929 3.68292 2.72287 3.97446 2.4085C4.266 2.09413 4.63611 1.86321 5.04662 1.73952Z" fill="#2F7CE5"/>
</g>
</svg>
