<svg width="18" height="18" viewBox="0 0 18 18" fill="none" xmlns="http://www.w3.org/2000/svg">
<g id="basil:chat-solid">
<path id="Vector" fill-rule="evenodd" clip-rule="evenodd" d="M6.0015 3.41584C8.0238 3.26345 10.0551 3.27348 12.0758 3.44584L13.293 3.54934C13.74 3.58739 14.1612 3.77464 14.4888 4.08098C14.8165 4.38731 15.0317 4.79495 15.0997 5.23834L15.1763 5.74009C15.437 7.44099 15.4127 9.17343 15.1042 10.8663C15.0305 11.2711 14.8171 11.6371 14.5012 11.9007C14.1853 12.1642 13.7869 12.3086 13.3755 12.3086H6.6435C6.48825 12.3086 6.336 12.3468 6.1995 12.4203L3.26625 13.9968C3.18054 14.0429 3.08434 14.0659 2.98706 14.0637C2.88978 14.0615 2.79474 14.034 2.71124 13.9841C2.62773 13.9341 2.55861 13.8634 2.51063 13.7787C2.46266 13.694 2.43746 13.5984 2.4375 13.5011V7.11334C2.43769 6.181 2.7901 5.28315 3.42414 4.5996C4.05818 3.91604 4.92705 3.49725 5.85675 3.42709L6.0015 3.41584ZM6 7.12609C5.75136 7.12609 5.5129 7.22486 5.33709 7.40068C5.16127 7.57649 5.0625 7.81495 5.0625 8.06359C5.0625 8.31223 5.16127 8.55069 5.33709 8.7265C5.5129 8.90232 5.75136 9.00109 6 9.00109C6.24864 9.00109 6.4871 8.90232 6.66291 8.7265C6.83873 8.55069 6.9375 8.31223 6.9375 8.06359C6.9375 7.81495 6.83873 7.57649 6.66291 7.40068C6.4871 7.22486 6.24864 7.12609 6 7.12609ZM9 7.12609C8.75136 7.12609 8.5129 7.22486 8.33709 7.40068C8.16127 7.57649 8.0625 7.81495 8.0625 8.06359C8.0625 8.31223 8.16127 8.55069 8.33709 8.7265C8.5129 8.90232 8.75136 9.00109 9 9.00109C9.24864 9.00109 9.4871 8.90232 9.66291 8.7265C9.83873 8.55069 9.9375 8.31223 9.9375 8.06359C9.9375 7.81495 9.83873 7.57649 9.66291 7.40068C9.4871 7.22486 9.24864 7.12609 9 7.12609ZM11.0625 8.06359C11.0625 7.81495 11.1613 7.57649 11.3371 7.40068C11.5129 7.22486 11.7514 7.12609 12 7.12609C12.2486 7.12609 12.4871 7.22486 12.6629 7.40068C12.8387 7.57649 12.9375 7.81495 12.9375 8.06359C12.9375 8.31223 12.8387 8.55069 12.6629 8.7265C12.4871 8.90232 12.2486 9.00109 12 9.00109C11.7514 9.00109 11.5129 8.90232 11.3371 8.7265C11.1613 8.55069 11.0625 8.31223 11.0625 8.06359Z" fill="#2F7CE5"/>
</g>
</svg>
