<svg width="25" height="25" viewBox="0 0 25 25" fill="none" xmlns="http://www.w3.org/2000/svg">
<g clip-path="url(#clip0_2040_16139)">
<rect width="25" height="25" rx="12.5" fill="#25215E"/>
<path d="M12.5143 23.7049C18.6988 23.7049 23.7122 18.6914 23.7122 12.507C23.7122 6.32256 18.6988 1.30908 12.5143 1.30908C6.32989 1.30908 1.31641 6.32256 1.31641 12.507C1.31641 18.6914 6.32989 23.7049 12.5143 23.7049Z" stroke="white" stroke-linecap="round" stroke-linejoin="round"/>
<path d="M14.2573 12.9878C17.176 13.5378 18.3854 15.0138 18.3854 15.0138C18.8864 15.8821 18.3854 17.0763 18.3854 17.0763C16.6927 19.1836 14.1244 19.405 12.5015 19.405C10.8791 19.405 8.3109 19.1836 6.61819 17.0763C6.61819 17.0763 6.11715 15.8821 6.61819 15.0138C6.61819 15.0138 7.82757 13.5383 10.7463 12.9878" stroke="white" stroke-linecap="round" stroke-linejoin="round"/>
<path d="M12.5013 13.5384C14.4113 13.5384 15.9596 11.7604 15.9596 9.56706C15.9596 7.37374 14.4113 5.5957 12.5013 5.5957C10.5913 5.5957 9.04297 7.37374 9.04297 9.56706C9.04297 11.7604 10.5913 13.5384 12.5013 13.5384Z" stroke="white" stroke-linecap="round" stroke-linejoin="round"/>
</g>
<defs>
<clipPath id="clip0_2040_16139">
<rect width="25" height="25" rx="12.5" fill="white"/>
</clipPath>
</defs>
</svg>
