<svg width="14" height="14" viewBox="0 0 14 14" fill="none" xmlns="http://www.w3.org/2000/svg">
<g clip-path="url(#clip0_347_17335)">
<path opacity="0.3" d="M4.66699 4.0835H11.0837V12.2502H4.66699V4.0835Z" fill="white"/>
<path d="M9.33366 0.583496H2.33366C1.69199 0.583496 1.16699 1.1085 1.16699 1.75016V9.91683H2.33366V1.75016H9.33366V0.583496ZM11.0837 2.91683H4.66699C4.02533 2.91683 3.50033 3.44183 3.50033 4.0835V12.2502C3.50033 12.8918 4.02533 13.4168 4.66699 13.4168H11.0837C11.7253 13.4168 12.2503 12.8918 12.2503 12.2502V4.0835C12.2503 3.44183 11.7253 2.91683 11.0837 2.91683ZM11.0837 12.2502H4.66699V4.0835H11.0837V12.2502Z" fill="white"/>
</g>
<defs>
<clipPath id="clip0_347_17335">
<rect width="14" height="14" fill="white"/>
</clipPath>
</defs>
</svg>
