<svg width="101" height="100" viewBox="0 0 101 100" fill="none" xmlns="http://www.w3.org/2000/svg">
<circle cx="50.5" cy="50" r="50" fill="#2F7CE5" fill-opacity="0.05"/>
<path d="M73.5 40.0012C74.8261 40.0012 76.0979 40.528 77.0355 41.4657C77.9732 42.4034 78.5 43.6751 78.5 45.0012V55.0012C78.5 56.3273 77.9732 57.5991 77.0355 58.5367C76.0979 59.4744 74.8261 60.0012 73.5 60.0012H70.845C70.2355 64.8345 67.8832 69.2792 64.2294 72.5012C60.5756 75.7232 55.8715 77.5011 51 77.5012V72.5012C54.9782 72.5012 58.7936 70.9209 61.6066 68.1078C64.4197 65.2948 66 61.4795 66 57.5012V42.5012C66 38.523 64.4197 34.7077 61.6066 31.8946C58.7936 29.0816 54.9782 27.5012 51 27.5012C47.0218 27.5012 43.2064 29.0816 40.3934 31.8946C37.5804 34.7077 36 38.523 36 42.5012V60.0012H28.5C27.1739 60.0012 25.9021 59.4744 24.9645 58.5367C24.0268 57.5991 23.5 56.3273 23.5 55.0012V45.0012C23.5 43.6751 24.0268 42.4034 24.9645 41.4657C25.9021 40.528 27.1739 40.0012 28.5 40.0012H31.155C31.7651 35.1685 34.1177 30.7244 37.7714 27.5029C41.4252 24.2814 46.1289 22.5039 51 22.5039C55.8711 22.5039 60.5748 24.2814 64.2286 27.5029C67.8823 30.7244 70.2349 35.1685 70.845 40.0012H73.5ZM40.4 59.4637L43.05 55.2237C45.4327 56.7163 48.1884 57.5058 51 57.5012C53.8116 57.5058 56.5673 56.7163 58.95 55.2237L61.6 59.4637C58.4231 61.4541 54.7489 62.507 51 62.5012C47.2511 62.5071 43.5768 61.4542 40.4 59.4637Z" fill="#2F7CE5"/>
</svg>
