<svg width="32" height="32" viewBox="0 0 32 32" fill="none" xmlns="http://www.w3.org/2000/svg">
<path d="M20.3648 30.5997L16.973 29.1703C16.7705 29.085 16.5618 29.0207 16.35 28.9761V20.5161C16.35 19.4171 16.4902 18.3225 16.7672 17.2589L16.9893 16.4065C16.9893 16.3961 14.2541 16.3765 14.2541 16.3765L14.4858 17.2765C14.7565 18.3284 14.8935 19.4104 14.8935 20.4967V28.9875C14.6991 29.0316 14.5075 29.0918 14.3212 29.1703L10.9294 30.5997C10.7905 30.6581 10.8324 30.8649 10.983 30.8649H20.3112C20.4618 30.865 20.5036 30.6582 20.3648 30.5997Z" fill="#00A0DD"/>
<path d="M21.1042 3.0708H10.1899C9.91948 3.0708 9.67805 3.23922 9.58472 3.49306C9.01436 5.0443 7.18027 10.5304 8.27819 14.2358C9.35258 17.8619 12.5472 19.4148 14.3577 20.0187C15.195 20.2979 16.0992 20.2979 16.9364 20.0187C18.7469 19.4148 21.9416 17.8619 23.016 14.2358C24.1139 10.5304 22.2798 5.0443 21.7095 3.49306C21.6161 3.23922 21.3746 3.0708 21.1042 3.0708Z" fill="#00A0DD"/>
<path d="M21.7092 3.49306C21.6159 3.23922 21.3745 3.0708 21.104 3.0708H18.5077C18.5077 3.0708 21.265 9.88232 19.9751 14.2358C18.9451 17.712 15.9666 19.2828 14.127 19.9387C14.2057 19.9668 14.2831 19.9938 14.3575 20.0186C15.1947 20.2979 16.099 20.2979 16.9362 20.0186C18.7467 19.4147 21.9414 17.8618 23.0158 14.2358C24.1137 10.5304 22.2796 5.0443 21.7092 3.49306Z" fill="#00A0DD"/>
<path d="M7.97852 12.6025C8.0291 13.1711 8.12468 13.7208 8.27729 14.2359C9.35162 17.8617 12.5458 19.4146 14.3563 20.0186C15.1936 20.2978 16.0987 20.2978 16.936 20.0186C18.7465 19.4146 21.9408 17.8617 23.015 14.2359C23.1676 13.7208 23.2633 13.1711 23.3138 12.6025H7.97852Z" fill="#00A0DD"/>
<path d="M23.0825 13.9932C23.0939 13.9488 23.1052 13.9043 23.1158 13.8595C23.1208 13.8385 23.1254 13.8173 23.1302 13.7963C23.1403 13.7524 23.1501 13.7085 23.1594 13.6642C23.1636 13.6442 23.1676 13.624 23.1716 13.6039C23.181 13.5573 23.1901 13.5107 23.1988 13.4638C23.202 13.446 23.2052 13.4282 23.2084 13.4104C23.2174 13.3594 23.2261 13.3081 23.2342 13.2566C23.2364 13.2428 23.2386 13.229 23.2407 13.2152C23.2497 13.1572 23.258 13.0988 23.2659 13.0403C23.2669 13.0327 23.268 13.025 23.269 13.0174C23.287 12.8804 23.3022 12.7421 23.3146 12.6025H20.2737C20.2231 13.1711 20.1277 13.7208 19.9751 14.2359C18.9451 17.7121 15.9666 19.2829 14.127 19.9388C14.1609 19.9509 14.1944 19.9627 14.2278 19.9743C14.2703 19.989 14.3128 20.0037 14.3539 20.0174C14.355 20.0178 14.3561 20.0182 14.3572 20.0186C15.1943 20.2978 16.0994 20.2978 16.9365 20.0186C16.9695 20.0076 17.0039 19.9956 17.0378 19.9839C17.062 19.9756 17.0855 19.9678 17.1102 19.9592C17.143 19.9477 17.1771 19.9351 17.2107 19.923C17.2376 19.9133 17.2639 19.9041 17.2913 19.894C17.3217 19.8828 17.3533 19.8705 17.3844 19.8588C17.416 19.8468 17.4472 19.8353 17.4793 19.8228C17.5061 19.8124 17.5337 19.8011 17.5609 19.7903C17.5983 19.7755 17.6354 19.761 17.6735 19.7455C17.7112 19.7301 17.7498 19.7135 17.7881 19.6974C17.8165 19.6855 17.8444 19.6741 17.8731 19.6618C17.9077 19.6469 17.9431 19.6309 17.9782 19.6154C18.0114 19.6007 18.0443 19.5866 18.0778 19.5713C18.1138 19.5551 18.1506 19.5375 18.1869 19.5206C18.2202 19.5052 18.253 19.4903 18.2866 19.4743C18.3199 19.4584 18.3539 19.4413 18.3876 19.4248C18.4248 19.4066 18.4617 19.3889 18.4992 19.3701C18.5216 19.3588 18.5445 19.3466 18.567 19.3351C18.6161 19.31 18.6651 19.2851 18.7146 19.2588C18.7487 19.2407 18.7832 19.2214 18.8175 19.2028C18.8558 19.1819 18.8939 19.1617 18.9323 19.1402C18.9647 19.122 18.9973 19.1027 19.0298 19.084C19.0705 19.0607 19.1111 19.0379 19.1519 19.0138C19.1736 19.0009 19.1955 18.9871 19.2172 18.974C19.2689 18.9429 19.3207 18.912 19.3725 18.8796C19.3922 18.8673 19.4118 18.854 19.4315 18.8416C19.4854 18.8073 19.5394 18.7731 19.5933 18.7374C19.6146 18.7233 19.6358 18.7082 19.6571 18.6939C19.7094 18.6587 19.7618 18.6236 19.814 18.5869C19.8341 18.5728 19.854 18.5578 19.8741 18.5435C19.9274 18.5055 19.9808 18.4676 20.0339 18.428C20.0475 18.4179 20.0609 18.4071 20.0744 18.3969C20.2069 18.2972 20.3384 18.1934 20.4684 18.084C20.4736 18.0796 20.4786 18.0749 20.4838 18.0706C20.5502 18.0145 20.6162 17.9574 20.6817 17.8986C20.693 17.8885 20.7039 17.8778 20.7151 17.8676C20.7743 17.8139 20.8333 17.7598 20.8916 17.7039C20.9012 17.6947 20.9106 17.6849 20.9201 17.6756C20.9797 17.618 21.039 17.5597 21.0975 17.4997C21.1009 17.4962 21.1041 17.4925 21.1075 17.489C21.1719 17.4227 21.2357 17.3551 21.2986 17.2858C21.3063 17.2773 21.3137 17.2683 21.3214 17.2597C21.3797 17.195 21.4376 17.1294 21.4944 17.062C21.4999 17.0555 21.5052 17.0485 21.5107 17.042C21.5693 16.972 21.6273 16.901 21.6841 16.8282C21.6897 16.8211 21.6951 16.8134 21.7007 16.8062C21.881 16.5736 22.0521 16.3268 22.2109 16.0642C22.2189 16.051 22.2262 16.0372 22.2341 16.024C22.3345 15.8556 22.4305 15.6817 22.5203 15.5006C22.528 15.4851 22.5349 15.4688 22.5425 15.4533C22.6786 15.1741 22.802 14.8803 22.9089 14.5697C22.9465 14.4604 22.9821 14.3491 23.0157 14.2358C23.0339 14.1743 23.0513 14.1122 23.0679 14.0497C23.073 14.031 23.0776 14.012 23.0825 13.9932Z" fill="#00A0DD"/>
<path d="M13.5343 10.9452L16.2332 6.80698C16.2972 6.70878 16.45 6.76473 16.4354 6.88107L16.1008 9.55831C16.0925 9.62427 16.144 9.68254 16.2104 9.68254H17.9162C18.0065 9.68254 18.0587 9.78502 18.0056 9.85808L15.113 13.8353C15.0456 13.928 14.8989 13.8694 14.9141 13.7557L15.2494 11.2413C15.2582 11.175 15.2066 11.1161 15.1398 11.1161H13.6269C13.5391 11.1161 13.4864 11.0187 13.5343 10.9452Z" fill="#25215E"/>
</svg>
