<svg width="16" height="16" viewBox="0 0 16 16" fill="none" xmlns="http://www.w3.org/2000/svg">
<g id="tabler:face-id">
<path id="Vector" d="M2.6665 5.33268V3.99935C2.6665 3.64573 2.80698 3.30659 3.05703 3.05654C3.30708 2.80649 3.64622 2.66602 3.99984 2.66602H5.33317M2.6665 10.666V11.9993C2.6665 12.353 2.80698 12.6921 3.05703 12.9422C3.30708 13.1922 3.64622 13.3327 3.99984 13.3327H5.33317M10.6665 2.66602H11.9998C12.3535 2.66602 12.6926 2.80649 12.9426 3.05654C13.1927 3.30659 13.3332 3.64573 13.3332 3.99935V5.33268M10.6665 13.3327H11.9998C12.3535 13.3327 12.6926 13.1922 12.9426 12.9422C13.1927 12.6921 13.3332 12.353 13.3332 11.9993V10.666M5.99984 6.66602H6.0065M9.99984 6.66602H10.0065M6.33317 9.99935C6.55042 10.2211 6.80974 10.3972 7.09592 10.5175C7.38211 10.6377 7.68941 10.6997 7.99984 10.6997C8.31026 10.6997 8.61757 10.6377 8.90375 10.5175C9.18994 10.3972 9.44925 10.2211 9.6665 9.99935" stroke="#2F7CE5" stroke-width="1.5" stroke-linecap="round" stroke-linejoin="round"/>
</g>
</svg>
