<svg width="24" height="24" viewBox="0 0 24 24" fill="none" xmlns="http://www.w3.org/2000/svg">
<g id="game-icons:take-my-money">
<path id="Vector" d="M10.5851 1.51602C10.3997 1.51537 10.2137 1.51555 10.0273 1.51635C9.12974 1.52052 8.21788 1.5441 7.29824 1.57823L7.5643 2.74509C8.52201 2.6368 9.57196 2.55618 10.6218 2.51587C11.1906 2.49402 11.7559 2.48249 12.3043 2.4854C13.9493 2.49398 15.4419 2.63212 16.4185 3.01049L16.836 3.1724L16.6496 3.57951C15.2874 6.55537 14.9723 9.42632 15.1858 12.2432C15.2912 8.90019 16.6808 5.92682 18.505 2.11504C16.0227 1.70254 13.3659 1.52526 10.5851 1.51598V1.51602ZM11.8992 3.3343C11.4895 3.33463 11.0718 3.34293 10.6542 3.35896C8.70084 3.43396 6.75426 3.66318 5.48559 3.92596C6.90276 6.55466 8.04918 9.18941 8.78948 11.7579C8.88156 11.7549 8.97373 11.7556 9.06576 11.76C9.2541 11.7693 9.44038 11.7948 9.6224 11.8346C8.86888 9.42534 8.0106 7.20332 6.94368 4.98468L6.7026 4.4834L7.25038 4.38646C8.62645 4.1428 10.0468 4.04849 11.3985 4.04807C11.4886 4.04807 11.5785 4.0484 11.668 4.04919C12.5269 4.05669 13.3547 4.10113 14.1217 4.16802L14.6399 4.21326L14.4887 4.71093C13.6122 7.59669 13.4405 10.6958 13.9361 13.6445C13.9443 13.6521 13.9527 13.6597 13.9607 13.6674C14.1395 13.6048 14.3067 13.541 14.4625 13.4727C14.0756 10.3136 14.247 7.05444 15.692 3.66641C14.8857 3.46096 13.6565 3.35357 12.3058 3.33669C12.1703 3.33502 12.0347 3.33419 11.8992 3.3343ZM18.6935 3.68048C17.2424 6.75341 16.2118 9.21595 16.0428 11.8744C16.9821 8.74302 18.7976 5.93601 20.8664 4.13259C20.1483 3.95346 19.4234 3.80264 18.6935 3.68048ZM4.86716 4.54902C3.98779 4.73033 3.12876 4.96049 2.29785 5.27849C2.7022 5.62912 3.43316 6.28138 4.32004 7.14829C4.72823 6.72815 5.14452 6.31307 5.57873 5.93563C5.34875 5.46976 5.11154 5.0075 4.86716 4.54902ZM11.5245 4.89974C10.8861 4.89665 10.2325 4.91493 9.57665 4.96035C9.50784 5.60169 9.12852 6.20169 8.67548 6.79176C9.39881 8.50124 10.0235 10.2456 10.5859 12.0977C11.4472 12.3518 12.2994 12.6521 12.9897 13.012C12.7333 11.0218 12.7683 8.98246 13.1012 6.98816C12.4972 6.36426 12.1826 5.67144 12.1574 4.90973C11.9465 4.90411 11.7355 4.90078 11.5245 4.89974ZM20.0566 6.16466C18.8974 7.5381 17.8759 9.25827 17.1799 11.1293C18.4579 9.31138 20.0294 7.89341 21.7022 6.89179C21.1572 6.64144 20.6086 6.39904 20.0566 6.16466ZM5.9594 6.72524C5.27531 7.34343 4.59937 8.08541 3.89545 8.79229C5.40899 9.69187 6.69815 10.7572 7.74979 11.9639C7.81509 11.9392 7.88104 11.917 7.94737 11.8968C7.45527 10.2048 6.78088 8.4734 5.9594 6.72524ZM16.8994 12.573C16.1308 13.5006 15.4072 13.9903 14.4108 14.381C14.5229 14.8131 14.3564 15.3093 13.9733 15.6888C13.7479 15.912 13.4647 16.1664 13.0506 16.3317C13.1103 16.3671 13.1713 16.4003 13.2334 16.4314C13.813 16.7206 14.8369 16.6274 15.7881 16.1947C16.7364 15.7635 17.5835 15.0186 17.8975 14.2639C18.0548 13.8397 17.9425 13.6184 17.667 13.294C17.4709 13.0631 17.1844 12.8304 16.8994 12.573V12.573ZM8.92696 12.6005C8.4247 12.5959 7.9146 12.7408 7.49305 13.058C6.89352 13.509 6.43134 14.3135 6.42721 15.6799V15.6892L6.42674 15.6986C6.28987 18.5758 6.50174 19.9033 6.92151 20.6235C7.29201 21.2593 7.90823 21.5636 8.80963 22.1233C8.85257 22.0105 8.89729 21.8718 8.93924 21.6968C9.04598 21.2515 9.13429 20.64 9.19026 19.9636C9.30224 18.6109 9.28588 16.9866 9.09862 15.8177L8.99966 15.1994L9.60979 15.3398C11.0917 15.6808 11.9395 15.721 12.4317 15.6342C12.9239 15.5473 13.0908 15.3753 13.3795 15.0893C13.6509 14.8206 13.6459 14.7239 13.5884 14.5727C13.5309 14.4215 13.3002 14.1722 12.9087 13.9337C12.1258 13.4567 10.7954 13.0144 9.55181 12.6846C9.34785 12.6306 9.13794 12.6024 8.92696 12.6005ZM17.791 15.8543C17.3217 16.3116 16.7441 16.6869 16.1374 16.9628C15.1538 17.4101 14.072 17.6147 13.1744 17.3168C12.8575 17.4348 12.6734 17.5703 12.5806 17.6825C12.4532 17.8364 12.4452 17.9496 12.4884 18.1118C12.5315 18.274 12.6602 18.4666 12.8193 18.6051C12.9783 18.7437 13.1674 18.8157 13.2392 18.8191C15.4327 18.9232 16.382 18.2938 17.5647 17.5636C17.9096 17.3507 18.0416 16.9194 18.0086 16.4887C17.992 16.2734 17.9294 16.071 17.857 15.9436C17.839 15.9111 17.8169 15.8811 17.791 15.8543ZM10.001 16.2807C10.1288 17.4558 10.1309 18.8267 10.0311 20.0332C9.97265 20.7397 9.88227 21.3822 9.75974 21.8934C9.70645 22.1159 9.64781 22.3131 9.57693 22.4868L16.4534 22.1838C16.3757 21.8955 16.2966 21.6061 16.2175 21.3165C15.9533 21.4044 15.6833 21.4737 15.4094 21.5239L15.4115 21.5581L15.0217 21.5824C14.7816 21.6111 14.5317 21.627 14.2724 21.6289L10.3415 21.8731L10.4584 21.329C10.8309 19.5944 10.8652 18.067 10.6355 16.3962C10.4232 16.3618 10.2117 16.3233 10.001 16.2807H10.001ZM11.4997 16.5003C11.6848 17.9971 11.6625 19.4257 11.3869 20.9628L12.2899 20.9067C12.1483 20.6977 12.051 20.462 12.004 20.214C11.9432 19.8915 11.977 19.5325 12.188 19.2357C12.1973 19.2225 12.2074 19.2099 12.2174 19.1972C11.9715 18.9701 11.7661 18.6787 11.673 18.3289C11.5739 17.9565 11.6358 17.5006 11.9307 17.1444C12.0281 17.0267 12.1459 16.9205 12.2842 16.8249C12.1619 16.7274 12.0546 16.624 11.962 16.5163C11.8184 16.5173 11.6646 16.512 11.4997 16.5003ZM17.7184 18.4589C16.6189 19.1271 15.3836 19.7656 13.1992 19.6619C13.1279 19.6585 13.057 19.6488 12.9874 19.6331C12.9296 19.659 12.8988 19.692 12.8758 19.7244C12.8306 19.7879 12.8039 19.9025 12.8331 20.0578C12.8916 20.3684 13.1859 20.7089 13.4599 20.7407C15.3998 20.9663 16.7401 20.3317 17.554 19.5934C17.929 19.2531 17.9322 19.0356 17.8769 18.7988C17.8493 18.6805 17.7884 18.5659 17.7184 18.4589ZM17.4051 20.7587C17.2749 20.8404 17.1413 20.9164 17.0045 20.9865C17.0819 21.2702 17.1594 21.5538 17.2359 21.8375L18.1697 21.6701C17.9287 21.4644 17.7402 21.2504 17.5889 21.0374C17.5213 20.9423 17.4617 20.8499 17.4051 20.7587Z" fill="#2F7CE5"/>
</g>
</svg>
