<svg width="21" height="20" viewBox="0 0 21 20" fill="none" xmlns="http://www.w3.org/2000/svg">
<g id="Iconsax/Bold/receipttext">
<path id="Vector" d="M6.33317 18.332H5.49984C2.99984 18.332 2.1665 16.8404 2.1665 14.9987V2.4987C2.1665 1.80703 2.94984 1.41537 3.49984 1.83203L4.92484 2.8987C5.25817 3.1487 5.72484 3.11536 6.02484 2.81536L7.40817 1.4237C7.73317 1.0987 8.2665 1.0987 8.5915 1.4237L9.9915 2.8237C10.2832 3.11536 10.7498 3.1487 11.0748 2.8987L12.4998 1.83203C13.0498 1.4237 13.8332 1.81536 13.8332 2.4987V16.6654C13.8332 17.582 14.5832 18.332 15.4998 18.332H6.33317ZM9.87484 8.54036H6.12484C5.78317 8.54036 5.49984 8.8237 5.49984 9.16536C5.49984 9.50703 5.78317 9.79036 6.12484 9.79036H9.87484C10.2165 9.79036 10.4998 9.50703 10.4998 9.16536C10.4998 8.8237 10.2165 8.54036 9.87484 8.54036ZM10.4998 11.8737H5.49984C5.15817 11.8737 4.87484 12.157 4.87484 12.4987C4.87484 12.8404 5.15817 13.1237 5.49984 13.1237H10.4998C10.8415 13.1237 11.1248 12.8404 11.1248 12.4987C11.1248 12.157 10.8415 11.8737 10.4998 11.8737Z" fill="#2F7CE5"/>
<path id="Vector_2" d="M15.5085 17.082C16.0585 17.082 16.5835 16.857 16.9668 16.482C17.3668 16.0737 17.5835 15.5487 17.5835 14.9987V12.982C17.5835 12.3654 17.3085 12.082 16.6835 12.082H15.0835V16.657C15.0835 16.8904 15.2752 17.082 15.5085 17.082ZM15.5085 18.332C14.5835 18.332 13.8335 17.582 13.8335 16.657V10.832H16.6835C18.0002 10.832 18.8335 11.6654 18.8335 12.982V14.9987C18.8335 15.9154 18.4585 16.7487 17.8585 17.357C17.2326 17.9766 16.3891 18.3266 15.5085 18.332Z" fill="#2F7CE5"/>
</g>
</svg>
