<svg width="51" height="31" viewBox="0 0 51 31" fill="none" xmlns="http://www.w3.org/2000/svg">
<g id="Group 59">
<path id="Vector" d="M31.8747 27.3748H18.3975V3.78906H31.8747V27.3748Z" fill="#FF5F00"/>
<path id="Vector_2" d="M19.2609 15.5781C19.2609 10.7936 21.5614 6.53178 25.1438 3.78526C22.5241 1.77687 19.2178 0.578125 15.6247 0.578125C7.11815 0.578125 0.222656 7.29375 0.222656 15.5781C0.222656 23.8625 7.11815 30.5781 15.6247 30.5781C19.2178 30.5781 22.5241 29.3794 25.1438 27.371C21.5614 24.6245 19.2609 20.3626 19.2609 15.5781Z" fill="#EB001B"/>
<path id="Vector_3" d="M50.051 15.5781C50.051 23.8625 43.1555 30.5781 34.649 30.5781C31.0558 30.5781 27.7496 29.3794 25.1289 27.371C28.7123 24.6245 31.0127 20.3626 31.0127 15.5781C31.0127 10.7936 28.7123 6.53178 25.1289 3.78526C27.7496 1.77687 31.0558 0.578125 34.649 0.578125C43.1555 0.578125 50.051 7.29375 50.051 15.5781Z" fill="#F79E1B"/>
</g>
</svg>
