<svg width="36" height="36" viewBox="0 0 36 36" fill="none" xmlns="http://www.w3.org/2000/svg">
<path fill-rule="evenodd" clip-rule="evenodd" d="M16.0675 0L19.9325 0C24.4638 0 26.8937 0.626573 29.0937 1.80315C31.2937 2.97972 33.0203 4.70629 34.1969 6.90629C35.3734 9.10629 36 11.5362 36 16.0675V19.9325C36 24.4638 35.3734 26.8937 34.1969 29.0937C33.0203 31.2937 31.2937 33.0203 29.0937 34.1969C26.8937 35.3734 24.4638 36 19.9325 36H16.0675C11.5362 36 9.10629 35.3734 6.90629 34.1969C4.70629 33.0203 2.97972 31.2937 1.80315 29.0937C0.626573 26.8937 0 24.4638 0 19.9325L0 16.0675C0 11.5362 0.626573 9.10629 1.80315 6.90629C2.97972 4.70629 4.70629 2.97972 6.90629 1.80315C9.10629 0.626573 11.5362 0 16.0675 0Z" fill="#2F7CE5" fill-opacity="0.05"/>
<path fill-rule="evenodd" clip-rule="evenodd" d="M14 19H22C22.5523 19 23 18.5523 23 18C23 17.4477 22.5523 17 22 17H14C13.4477 17 13 17.4477 13 18C13 18.5523 13.4477 19 14 19Z" fill="#2F7CE5"/>
</svg>
