<svg width="101" height="100" viewBox="0 0 101 100" fill="none" xmlns="http://www.w3.org/2000/svg">
<circle cx="50.5" cy="50" r="50" fill="#2F7CE5" fill-opacity="0.05"/>
<path d="M68.5 40H33.5C30.7386 40 28.5 42.2386 28.5 45V70C28.5 72.7614 30.7386 75 33.5 75H68.5C71.2614 75 73.5 72.7614 73.5 70V45C73.5 42.2386 71.2614 40 68.5 40Z" stroke="#2F7CE5" stroke-width="5" stroke-linecap="round" stroke-linejoin="round"/>
<path d="M51 32.5C51 31.0166 50.5601 29.5666 49.736 28.3332C48.9119 27.0999 47.7406 26.1386 46.3701 25.5709C44.9997 25.0032 43.4917 24.8547 42.0368 25.1441C40.582 25.4335 39.2456 26.1478 38.1967 27.1967C37.1478 28.2456 36.4335 29.582 36.1441 31.0368C35.8547 32.4917 36.0032 33.9997 36.5709 35.3701C37.1386 36.7406 38.0999 37.9119 39.3332 38.736C40.5666 39.5601 42.0166 40 43.5 40M51 32.5C51 31.0166 51.4399 29.5666 52.264 28.3332C53.0881 27.0999 54.2594 26.1386 55.6299 25.5709C57.0003 25.0032 58.5083 24.8547 59.9632 25.1441C61.418 25.4335 62.7544 26.1478 63.8033 27.1967C64.8522 28.2456 65.5665 29.582 65.8559 31.0368C66.1453 32.4917 65.9968 33.9997 65.4291 35.3701C64.8614 36.7406 63.9001 37.9119 62.6668 38.736C61.4334 39.5601 59.9834 40 58.5 40M51 32.5V75M73.5 57.5H28.5" stroke="#2F7CE5" stroke-width="5" stroke-linecap="round" stroke-linejoin="round"/>
</svg>
