<svg width="36" height="35" viewBox="0 0 36 35" fill="none" xmlns="http://www.w3.org/2000/svg">
<rect x="0.5" width="35" height="35" rx="17.5" fill="#EEF4FC"/>
<path d="M18 19L14 15L17 15L17 7L19 7L19 15L22 15M24 25L12 25C11.4696 25 10.9609 24.7893 10.5858 24.4142C10.2107 24.0391 10 23.5304 10 23L10 11C10 10.4696 10.2107 9.96086 10.5858 9.58579C10.9609 9.21071 11.4696 9 12 9L15 9L15 11L12 11L12 23L24 23L24 11L21 11L21 9L24 9C24.5304 9 25.0391 9.21071 25.4142 9.58579C25.7893 9.96086 26 10.4696 26 11L26 23C26 23.5304 25.7893 24.0391 25.4142 24.4142C25.0391 24.7893 24.5304 25 24 25Z" fill="#2F7CE5"/>
</svg>
