<svg width="35" height="35" viewBox="0 0 35 35" fill="none" xmlns="http://www.w3.org/2000/svg">
<g id="Group 23">
<rect id="Rectangle" width="35" height="35" rx="17.5" fill="#EEF4FC"/>
<path id="Bag 2" fill-rule="evenodd" clip-rule="evenodd" d="M21.9184 11.47H22.1232C24.8152 11.47 27 13.72 27 16.48V22C27 24.76 24.8152 27 22.1232 27H12.8768C10.1848 27 8 24.76 8 22V16.48C8 13.72 10.1848 11.47 12.8768 11.47H13.0816C13.1011 10.27 13.5595 9.15 14.3886 8.31C15.2274 7.46 16.3003 7.03 17.5098 7C19.9286 7 21.8891 9 21.9184 11.47ZM15.4127 9.38C14.8665 9.94 14.5642 10.68 14.5447 11.47H20.4553C20.4261 9.83 19.1191 8.5 17.5098 8.5C16.7587 8.5 15.9784 8.81 15.4127 9.38ZM21.2064 15.32C21.616 15.32 21.9379 14.98 21.9379 14.57V13.41C21.9379 13 21.616 12.66 21.2064 12.66C20.8065 12.66 20.4748 13 20.4748 13.41V14.57C20.4748 14.98 20.8065 15.32 21.2064 15.32ZM14.4374 14.57C14.4374 14.98 14.1155 15.32 13.7059 15.32C13.306 15.32 12.9743 14.98 12.9743 14.57V13.41C12.9743 13 13.306 12.66 13.7059 12.66C14.1155 12.66 14.4374 13 14.4374 13.41V14.57Z" fill="#3072D6"/>
</g>
</svg>
