<svg width="50" height="50" viewBox="0 0 50 50" fill="none" xmlns="http://www.w3.org/2000/svg">
<rect width="50" height="50" rx="15" fill="#F7F7F7"/>
<g clip-path="url(#clip0_351_15061)">
<path d="M34.6562 24.5C34.6562 21.8064 33.5862 19.2231 31.6816 17.3184C29.7769 15.4138 27.1936 14.3438 24.5 14.3438C21.8064 14.3438 19.2231 15.4138 17.3184 17.3184C15.4138 19.2231 14.3438 21.8064 14.3438 24.5C14.3438 27.1936 15.4138 29.7769 17.3184 31.6816C19.2231 33.5862 21.8064 34.6562 24.5 34.6562C27.1936 34.6562 29.7769 33.5862 31.6816 31.6816C33.5862 29.7769 34.6562 27.1936 34.6562 24.5ZM12 24.5C12 21.1848 13.317 18.0054 15.6612 15.6612C18.0054 13.317 21.1848 12 24.5 12C27.8152 12 30.9946 13.317 33.3388 15.6612C35.683 18.0054 37 21.1848 37 24.5C37 27.8152 35.683 30.9946 33.3388 33.3388C30.9946 35.683 27.8152 37 24.5 37C21.1848 37 18.0054 35.683 15.6612 33.3388C13.317 30.9946 12 27.8152 12 24.5ZM29.0654 27.0586C29.9785 26.8438 30.8184 27.6445 30.3105 28.4307C29.1094 30.291 26.9561 31.5312 24.4951 31.5312C22.0342 31.5312 19.8809 30.291 18.6797 28.4307C18.1719 27.6445 19.0117 26.8438 19.9248 27.0586C21.3359 27.3906 22.8789 27.5713 24.4951 27.5713C26.1113 27.5713 27.6543 27.3906 29.0654 27.0586ZM19.0508 22.1562C19.0508 21.7418 19.2154 21.3444 19.5084 21.0514C19.8015 20.7584 20.1989 20.5938 20.6133 20.5938C21.0277 20.5938 21.4251 20.7584 21.7181 21.0514C22.0112 21.3444 22.1758 21.7418 22.1758 22.1562C22.1758 22.5707 22.0112 22.9681 21.7181 23.2611C21.4251 23.5541 21.0277 23.7188 20.6133 23.7188C20.1989 23.7188 19.8015 23.5541 19.5084 23.2611C19.2154 22.9681 19.0508 22.5707 19.0508 22.1562ZM28.4258 20.5938C28.8402 20.5938 29.2376 20.7584 29.5306 21.0514C29.8237 21.3444 29.9883 21.7418 29.9883 22.1562C29.9883 22.5707 29.8237 22.9681 29.5306 23.2611C29.2376 23.5541 28.8402 23.7188 28.4258 23.7188C28.0114 23.7188 27.614 23.5541 27.3209 23.2611C27.0279 22.9681 26.8633 22.5707 26.8633 22.1562C26.8633 21.7418 27.0279 21.3444 27.3209 21.0514C27.614 20.7584 28.0114 20.5938 28.4258 20.5938Z" fill="#00A0DD"/>
</g>
<defs>
<clipPath id="clip0_351_15061">
<rect width="25" height="25" fill="white" transform="translate(12 12)"/>
</clipPath>
</defs>
</svg>
