<svg width="50" height="50" viewBox="0 0 50 50" fill="none" xmlns="http://www.w3.org/2000/svg">
<rect width="50" height="50" rx="15" fill="#F7F7F7"/>
<path d="M15 33V17H35V33H15ZM19.5 28H20.65V22H19.75L18 23.25L18.6 24.15L19.5 23.5V28ZM22.6 28H26.5V27H24.15L24.1 26.95C24.45 26.6167 24.7377 26.3333 24.963 26.1C25.1883 25.8667 25.3673 25.6833 25.5 25.55C25.8 25.25 26.025 24.95 26.175 24.65C26.325 24.35 26.4 24.0333 26.4 23.7C26.4 23.2167 26.2167 22.8123 25.85 22.487C25.4833 22.1617 25.0167 21.9993 24.45 22C24.0167 22 23.625 22.125 23.275 22.375C22.925 22.625 22.6833 22.95 22.55 23.35L23.55 23.75C23.6333 23.5333 23.7543 23.3623 23.913 23.237C24.0717 23.1117 24.2507 23.0493 24.45 23.05C24.7 23.05 24.9043 23.1167 25.063 23.25C25.2217 23.3833 25.3007 23.55 25.3 23.75C25.3 23.9333 25.2667 24.1043 25.2 24.263C25.1333 24.4217 24.9833 24.6173 24.75 24.85L23.95 25.65L22.6 27V28ZM30 28C30.6 28 31.0833 27.8333 31.45 27.5C31.8167 27.1667 32 26.7333 32 26.2C32 25.9 31.9167 25.6333 31.75 25.4C31.5833 25.1667 31.35 24.9833 31.05 24.85V24.8C31.2833 24.6667 31.4667 24.4957 31.6 24.287C31.7333 24.0783 31.8 23.8327 31.8 23.55C31.8 23.1 31.625 22.729 31.275 22.437C30.925 22.145 30.4833 21.9993 29.95 22C29.5333 22 29.146 22.121 28.788 22.363C28.43 22.605 28.2007 22.9007 28.1 23.25L29.1 23.65C29.1667 23.45 29.275 23.2917 29.425 23.175C29.575 23.0583 29.75 23 29.95 23C30.1667 23 30.346 23.0627 30.488 23.188C30.63 23.3133 30.7007 23.4673 30.7 23.65C30.7 23.8833 30.6167 24.0667 30.45 24.2C30.2833 24.3333 30.0667 24.4 29.8 24.4H29.35V25.4H29.85C30.1833 25.4 30.4417 25.4667 30.625 25.6C30.8083 25.7333 30.9 25.9167 30.9 26.15C30.9 26.3667 30.8083 26.5543 30.625 26.713C30.4417 26.8717 30.2333 26.9507 30 26.95C29.7167 26.95 29.5 26.8877 29.35 26.763C29.2 26.6383 29.0667 26.4173 28.95 26.1L27.95 26.5C28.0667 26.9833 28.3043 27.3543 28.663 27.613C29.0217 27.8717 29.4673 28.0007 30 28Z" fill="#20ACE1"/>
</svg>
