<svg width="30" height="30" viewBox="0 0 30 30" fill="none" xmlns="http://www.w3.org/2000/svg">
<g clip-path="url(#clip0_347_17623)">
<path d="M22.2384 7.24154V28.1566C22.2384 28.9766 21.5737 29.6413 20.7537 29.6413H3.52669C2.70666 29.6413 2.04199 28.9766 2.04199 28.1566V7.24154C2.04199 6.4215 2.70671 5.75684 3.52669 5.75684H20.7537C21.5737 5.75684 22.2384 6.42156 22.2384 7.24154Z" fill="#EAA900"/>
<path d="M22.2378 7.24154V27.707H5.16732C4.34728 27.707 3.68262 27.0423 3.68262 26.2223V5.75684H20.7531C21.5731 5.75684 22.2378 6.42156 22.2378 7.24154Z" fill="#00A0DD"/>
<path d="M26.5266 23.6566L10.0417 28.6565C9.25682 28.8945 8.42803 28.4513 8.19001 27.6671L2.11927 7.65175C1.88068 6.86745 2.32381 6.0381 3.10867 5.80008L3.42929 5.70281L19.5936 0.799647C20.3785 0.561681 21.2073 1.00481 21.4453 1.78967L27.3789 21.3507L27.5166 21.805C27.7545 22.5893 27.3114 23.4187 26.5266 23.6566Z" fill="#EAA900"/>
<path d="M27.3792 21.3507L11.2143 26.2533C10.4295 26.4912 9.6007 26.0481 9.36268 25.2638L3.42969 5.70281L19.594 0.799647C20.3789 0.561681 21.2077 1.00481 21.4457 1.78967L27.3792 21.3507Z" fill="#00A0DD"/>
<path d="M12.7648 10.7511C13.4308 10.7943 13.7578 10.8374 13.9102 11.3399C14.0413 11.772 13.8775 12.0415 13.395 12.1878C12.9463 12.3239 12.728 12.1965 12.5352 12.0839C12.4061 12.0086 12.2598 11.9231 12.0768 11.9786C11.7977 12.0632 11.6696 12.4205 11.7457 12.6715C11.8706 13.0831 12.5066 13.3434 13.2034 13.2856L13.2566 13.4608C13.3448 13.7516 13.6531 13.9164 13.9439 13.8282C14.2347 13.74 14.3995 13.4317 14.3113 13.1408L14.2547 12.954C14.9403 12.5424 15.1861 11.8335 14.9293 10.9867C14.5576 9.76151 13.5748 9.70302 12.9875 9.66813L12.9189 9.66412C12.3352 9.63048 12.0728 9.60112 11.9687 9.25786C11.9107 9.06687 11.9367 8.92849 12.0529 8.80897C12.1744 8.68375 12.3641 8.60771 12.5018 8.56587C12.8346 8.46493 13.0439 8.5032 13.1967 8.53109C13.3054 8.55097 13.4081 8.56977 13.52 8.53584C13.8347 8.44037 13.9115 8.06679 13.8442 7.84503C13.701 7.373 12.9812 7.42166 12.5956 7.48444L12.542 7.30773C12.4538 7.01692 12.1455 6.85212 11.8547 6.94025C11.5639 7.0285 11.3991 7.33681 11.4873 7.62762L11.5609 7.87032C10.9472 8.27399 10.7301 8.88705 10.9496 9.61089C11.2658 10.6536 12.097 10.7076 12.7648 10.7511Z" fill="#25215E"/>
<path d="M21.6844 13.294C21.6139 13.0616 21.3682 12.9306 21.1361 13.001L8.6041 16.8022C8.37178 16.8728 8.24057 17.1182 8.31103 17.3506C8.36862 17.5404 8.54295 17.6627 8.73152 17.6627C8.77381 17.6627 8.81683 17.6566 8.85928 17.6437L21.3913 13.8424C21.6237 13.7719 21.7548 13.5263 21.6844 13.294Z" fill="#25215E"/>
<path d="M22.4158 15.7061C22.3453 15.4737 22.0998 15.3427 21.8675 15.413L9.33554 19.2143C9.10322 19.2848 8.97202 19.5303 9.04247 19.7626C9.10006 19.9524 9.2744 20.0747 9.46296 20.0747C9.50525 20.0747 9.54827 20.0686 9.59073 20.0557L22.1227 16.2544C22.355 16.1839 22.4863 15.9384 22.4158 15.7061Z" fill="#25215E"/>
<path d="M23.1482 18.1182C23.0777 17.8859 22.8321 17.7548 22.5999 17.8252L10.068 21.6265C9.83564 21.697 9.70444 21.9425 9.7749 22.1748C9.83248 22.3646 10.0068 22.4869 10.1954 22.4869C10.2377 22.4869 10.2807 22.4808 10.3231 22.4679L22.8551 18.6666C23.0875 18.596 23.2187 18.3506 23.1482 18.1182Z" fill="#25215E"/>
<path d="M23.8797 20.5308C23.8092 20.2984 23.5637 20.1674 23.3314 20.2378L10.7994 24.039C10.5671 24.1096 10.4359 24.355 10.5063 24.5874C10.5639 24.7772 10.7383 24.8995 10.9268 24.8995C10.9691 24.8995 11.0121 24.8933 11.0546 24.8805L23.5866 21.0792C23.819 21.0086 23.9502 20.7631 23.8797 20.5308Z" fill="#25215E"/>
<path d="M8.9108 4.04056L8.06908 4.29552C7.80825 3.52003 7.07437 2.96026 6.21216 2.96026C5.13186 2.96026 4.25323 3.83889 4.25323 4.91919V10.0012C4.25323 10.6325 4.76726 11.1465 5.39856 11.1465C6.02986 11.1465 6.5439 10.6325 6.5439 10.0012V4.93032C6.5439 4.8729 6.53041 4.81836 6.50523 4.77032C6.44719 4.65599 6.32824 4.57746 6.19105 4.57746C5.99644 4.57746 5.83819 4.73571 5.83819 4.93032V9.29189C5.83819 9.53454 5.64127 9.73152 5.39856 9.73152C5.15586 9.73152 4.95894 9.53459 4.95894 9.29189V4.93032C4.95894 4.25097 5.5117 3.6982 6.19105 3.6982C6.72445 3.6982 7.17932 4.03875 7.35045 4.51355C7.39736 4.64369 7.4231 4.78438 7.4231 4.93032V10.0011C7.4231 11.1171 6.51455 12.0256 5.39856 12.0256C4.28196 12.0256 3.37402 11.1171 3.37402 10.0011V4.91919C3.37402 3.35416 4.64712 2.08105 6.21216 2.08105C7.47064 2.08105 8.54033 2.90459 8.9108 4.04056Z" fill="#8A4CB7"/>
</g>
<defs>
<clipPath id="clip0_347_17623">
<rect width="28.9059" height="28.9059" fill="white" transform="translate(0.358398 0.735352)"/>
</clipPath>
</defs>
</svg>
