<svg width="24" height="24" viewBox="0 0 24 24" fill="none" xmlns="http://www.w3.org/2000/svg">
<g id="Iconsax/Bold/card">
<path id="Vector" d="M22 7.54795C22 8.20795 21.46 8.74795 20.8 8.74795H3.2C2.54 8.74795 2 8.20795 2 7.54795V7.53795C2 5.24795 3.85 3.39795 6.14 3.39795H17.85C20.14 3.39795 22 5.25795 22 7.54795ZM2 11.4499V16.4599C2 18.7499 3.85 20.5999 6.14 20.5999H17.85C20.14 20.5999 22 18.74 22 16.45V11.4499C22 10.7899 21.46 10.2499 20.8 10.2499H3.2C2.54 10.2499 2 10.7899 2 11.4499ZM8 17.2499H6C5.59 17.2499 5.25 16.9099 5.25 16.4999C5.25 16.0899 5.59 15.7499 6 15.7499H8C8.41 15.7499 8.75 16.0899 8.75 16.4999C8.75 16.9099 8.41 17.2499 8 17.2499ZM14.5 17.2499H10.5C10.09 17.2499 9.75 16.9099 9.75 16.4999C9.75 16.0899 10.09 15.7499 10.5 15.7499H14.5C14.91 15.7499 15.25 16.0899 15.25 16.4999C15.25 16.9099 14.91 17.2499 14.5 17.2499Z" fill="#2F7CE5"/>
</g>
</svg>
