<svg width="30" height="18" viewBox="0 0 30 18" fill="none" xmlns="http://www.w3.org/2000/svg">
<rect width="30" height="18" rx="5" fill="#00A0DD"/>
<path d="M7.92956 7.38539C8.30365 8.16452 8.8136 8.89476 9.45942 9.54058C10.1052 10.1864 10.8355 10.6964 11.6146 11.0704C11.6816 11.1026 11.7151 11.1187 11.7575 11.1311C11.9082 11.175 12.0933 11.1434 12.2209 11.0521C12.2568 11.0263 12.2875 10.9956 12.3489 10.9342C12.5368 10.7463 12.6308 10.6523 12.7253 10.5909C13.0816 10.3593 13.5409 10.3593 13.8972 10.5909C13.9916 10.6523 14.0856 10.7463 14.2735 10.9342L14.3782 11.0389C14.6639 11.3246 14.8067 11.4674 14.8843 11.6208C15.0386 11.9258 15.0386 12.2861 14.8843 12.5911C14.8067 12.7445 14.6639 12.8873 14.3782 13.173L14.2935 13.2577C14.0089 13.5423 13.8665 13.6847 13.673 13.7934C13.4583 13.914 13.1248 14.0007 12.8785 14C12.6566 13.9993 12.5049 13.9563 12.2015 13.8702C10.5711 13.4074 9.03266 12.5343 7.74918 11.2508C6.4657 9.96734 5.59258 8.42889 5.12983 6.79851C5.04372 6.49513 5.00066 6.34344 5 6.12149C4.99927 5.87521 5.086 5.54171 5.20662 5.32698C5.31532 5.13347 5.45765 4.99114 5.74231 4.70648L5.82704 4.62176C6.11268 4.33612 6.2555 4.1933 6.40888 4.11572C6.71393 3.96143 7.07419 3.96143 7.37924 4.11572C7.53262 4.1933 7.67544 4.33612 7.96108 4.62176L8.06582 4.7265C8.25372 4.9144 8.34767 5.00835 8.4091 5.10283C8.64075 5.45912 8.64075 5.91844 8.4091 6.27472C8.34767 6.3692 8.25372 6.46315 8.06582 6.65106C8.00438 6.7125 7.97366 6.74322 7.94794 6.77913C7.85657 6.90674 7.82501 7.09177 7.86894 7.24246C7.8813 7.28486 7.89739 7.31837 7.92956 7.38539Z" stroke="white" stroke-linecap="round" stroke-linejoin="round"/>
<path d="M21 4C19.6237 4 18.5 5.12373 18.5 6.5C18.5 7.87627 19.6237 9 21 9C22.3763 9 23.5 7.87627 23.5 6.5C23.5 5.12373 22.3763 4 21 4ZM21 4.75C21.9709 4.75 22.75 5.52906 22.75 6.5C22.75 7.47094 21.9709 8.25 21 8.25C20.0291 8.25 19.25 7.47094 19.25 6.5C19.25 5.52906 20.0291 4.75 21 4.75ZM18.125 10C17.5081 10 17 10.5081 17 11.125V11.4248C17 12.16 17.4662 12.8195 18.1772 13.2729C18.8883 13.7264 19.8612 14 21 14C22.1388 14 23.1117 13.7264 23.8228 13.2729C24.5338 12.8195 25 12.16 25 11.4248V11.125C25 10.5081 24.4919 10 23.875 10H18.125ZM18.125 10.75H23.875C24.0866 10.75 24.25 10.9134 24.25 11.125V11.4248C24.25 11.8411 23.9819 12.282 23.4194 12.6406C22.857 12.9993 22.0172 13.25 21 13.25C19.9828 13.25 19.143 12.9993 18.5806 12.6406C18.0181 12.282 17.75 11.8411 17.75 11.4248V11.125C17.75 10.9134 17.9134 10.75 18.125 10.75Z" fill="white"/>
</svg>
