<svg width="12" height="12" viewBox="0 0 12 12" fill="none" xmlns="http://www.w3.org/2000/svg">
<g id="uil:camera-change">
<path id="Vector" d="M6.145 2.60399L6.895 3.35399C6.94148 3.40086 6.99678 3.43805 7.05771 3.46344C7.11864 3.48882 7.18399 3.50189 7.25 3.50189C7.31601 3.50189 7.38136 3.48882 7.44229 3.46344C7.50322 3.43805 7.55852 3.40086 7.605 3.35399C7.68088 3.27435 7.72837 3.1719 7.74013 3.06252C7.75188 2.95314 7.72723 2.84294 7.67 2.74899H9.5C9.63261 2.74899 9.75979 2.69631 9.85355 2.60255C9.94732 2.50878 10 2.3816 10 2.24899C10 2.11638 9.94732 1.98921 9.85355 1.89544C9.75979 1.80167 9.63261 1.74899 9.5 1.74899H7.67C7.72723 1.65504 7.75188 1.54484 7.74013 1.43547C7.72837 1.32609 7.68088 1.22364 7.605 1.14399C7.55852 1.09713 7.50322 1.05993 7.44229 1.03455C7.38136 1.00916 7.31601 0.996094 7.25 0.996094C7.18399 0.996094 7.11864 1.00916 7.05771 1.03455C6.99678 1.05993 6.94148 1.09713 6.895 1.14399L6.145 1.89399C6.09948 1.94154 6.0638 1.99762 6.04 2.05899C5.98999 2.18072 5.98999 2.31726 6.04 2.43899C6.0638 2.50037 6.09948 2.55644 6.145 2.60399ZM11.46 4.55899C11.4362 4.49762 11.4005 4.44154 11.355 4.39399L10.605 3.64399C10.5585 3.59713 10.5032 3.55993 10.4423 3.53455C10.3814 3.50916 10.316 3.49609 10.25 3.49609C10.184 3.49609 10.1186 3.50916 10.0577 3.53455C9.99678 3.55993 9.94148 3.59713 9.895 3.64399C9.81912 3.72364 9.77163 3.82609 9.75987 3.93547C9.74812 4.04484 9.77277 4.15504 9.83 4.24899H8C7.86739 4.24899 7.74021 4.30167 7.64645 4.39544C7.55268 4.48921 7.5 4.61638 7.5 4.74899C7.5 4.8816 7.55268 5.00878 7.64645 5.10255C7.74021 5.19631 7.86739 5.24899 8 5.24899H9.83C9.77277 5.34294 9.74812 5.45314 9.75987 5.56252C9.77163 5.6719 9.81912 5.77434 9.895 5.85399C9.94148 5.90086 9.99678 5.93805 10.0577 5.96344C10.1186 5.98882 10.184 6.00189 10.25 6.00189C10.316 6.00189 10.3814 5.98882 10.4423 5.96344C10.5032 5.93805 10.5585 5.90086 10.605 5.85399L11.355 5.10399C11.4005 5.05644 11.4362 5.00037 11.46 4.93899C11.51 4.81726 11.51 4.68072 11.46 4.55899ZM5.5 4.99899C5.10444 4.99899 4.71776 5.11629 4.38886 5.33605C4.05996 5.55582 3.80362 5.86817 3.65224 6.23363C3.50087 6.59908 3.46126 7.00121 3.53843 7.38917C3.6156 7.77714 3.80608 8.1335 4.08579 8.41321C4.36549 8.69291 4.72186 8.88339 5.10982 8.96056C5.49778 9.03773 5.89991 8.99813 6.26537 8.84675C6.63082 8.69538 6.94318 8.43903 7.16294 8.11013C7.3827 7.78123 7.5 7.39456 7.5 6.99899C7.5 6.46856 7.28929 5.95985 6.91421 5.58478C6.53914 5.20971 6.03043 4.99899 5.5 4.99899ZM5.5 7.99899C5.30222 7.99899 5.10888 7.94034 4.94443 7.83046C4.77998 7.72058 4.65181 7.5644 4.57612 7.38168C4.50043 7.19895 4.48063 6.99788 4.51921 6.8039C4.5578 6.60992 4.65304 6.43174 4.79289 6.29189C4.93275 6.15203 5.11093 6.05679 5.30491 6.01821C5.49889 5.97962 5.69996 5.99943 5.88268 6.07511C6.06541 6.1508 6.22159 6.27897 6.33147 6.44342C6.44135 6.60787 6.5 6.80121 6.5 6.99899C6.5 7.26421 6.39464 7.51856 6.20711 7.7061C6.01957 7.89364 5.76522 7.99899 5.5 7.99899ZM10 6.49899C9.86739 6.49899 9.74021 6.55167 9.64645 6.64544C9.55268 6.73921 9.5 6.86638 9.5 6.99899V9.49899C9.5 9.6316 9.44732 9.75878 9.35355 9.85255C9.25979 9.94631 9.13261 9.99899 9 9.99899H2C1.86739 9.99899 1.74021 9.94631 1.64645 9.85255C1.55268 9.75878 1.5 9.6316 1.5 9.49899V5.49899C1.5 5.36638 1.55268 5.23921 1.64645 5.14544C1.74021 5.05167 1.86739 4.99899 2 4.99899H3C3.10966 5.00436 3.21803 4.97348 3.3084 4.91113C3.39877 4.84878 3.4661 4.75842 3.5 4.65399L3.77 3.84399C3.80126 3.74769 3.86101 3.66314 3.94137 3.60153C4.02172 3.53993 4.11888 3.50417 4.22 3.49899H5C5.13261 3.49899 5.25979 3.44631 5.35355 3.35255C5.44732 3.25878 5.5 3.1316 5.5 2.99899C5.5 2.86638 5.44732 2.73921 5.35355 2.64544C5.25979 2.55167 5.13261 2.49899 5 2.49899H4.22C3.9043 2.49888 3.59662 2.59838 3.34076 2.78331C3.0849 2.96825 2.89392 3.22919 2.795 3.52899L2.64 3.99899H2C1.60218 3.99899 1.22064 4.15703 0.93934 4.43833C0.658035 4.71964 0.5 5.10117 0.5 5.49899V9.49899C0.5 9.89682 0.658035 10.2783 0.93934 10.5597C1.22064 10.841 1.60218 10.999 2 10.999H9C9.39782 10.999 9.77936 10.841 10.0607 10.5597C10.342 10.2783 10.5 9.89682 10.5 9.49899V6.99899C10.5 6.86638 10.4473 6.73921 10.3536 6.64544C10.2598 6.55167 10.1326 6.49899 10 6.49899Z" fill="#2F7CE5"/>
</g>
</svg>
