<svg width="16" height="16" viewBox="0 0 16 16" fill="none" xmlns="http://www.w3.org/2000/svg">
<g id="material-symbols:pin-outline">
<path id="Vector" d="M2.66683 13.3327C2.30016 13.3327 1.98616 13.202 1.72483 12.9407C1.4635 12.6793 1.33305 12.3656 1.3335 11.9993V3.99935C1.3335 3.63268 1.46416 3.31868 1.7255 3.05735C1.98683 2.79602 2.30061 2.66557 2.66683 2.66602H13.3335C13.7002 2.66602 14.0142 2.79668 14.2755 3.05802C14.5368 3.31935 14.6673 3.63313 14.6668 3.99935V11.9993C14.6668 12.366 14.5362 12.68 14.2748 12.9413C14.0135 13.2027 13.6997 13.3331 13.3335 13.3327H2.66683ZM4.3335 9.99935H5.10016V5.99935H4.50016L3.3335 6.83268L3.7335 7.43268L4.3335 6.99935V9.99935ZM6.40016 9.99935H9.00016V9.33268H7.4335L7.40016 9.29935C7.6335 9.07713 7.82528 8.88824 7.9755 8.73268C8.12572 8.57713 8.24505 8.45491 8.3335 8.36602C8.5335 8.16602 8.6835 7.96602 8.7835 7.76602C8.8835 7.56602 8.9335 7.35491 8.9335 7.13268C8.9335 6.81046 8.81128 6.54091 8.56683 6.32402C8.32239 6.10713 8.01128 5.99891 7.6335 5.99935C7.34461 5.99935 7.0835 6.08268 6.85016 6.24935C6.61683 6.41602 6.45572 6.63268 6.36683 6.89935L7.0335 7.16602C7.08905 7.02157 7.16972 6.90757 7.2755 6.82402C7.38128 6.74046 7.50061 6.69891 7.6335 6.69935C7.80016 6.69935 7.93639 6.74379 8.04216 6.83268C8.14794 6.92157 8.20061 7.03268 8.20016 7.16602C8.20016 7.28824 8.17794 7.40224 8.1335 7.50802C8.08905 7.61379 7.98905 7.74424 7.8335 7.89935L7.30016 8.43268L6.40016 9.33268V9.99935ZM11.3335 9.99935C11.7335 9.99935 12.0557 9.88824 12.3002 9.66602C12.5446 9.44379 12.6668 9.15491 12.6668 8.79935C12.6668 8.59935 12.6113 8.42157 12.5002 8.26602C12.3891 8.11046 12.2335 7.98824 12.0335 7.89935V7.86602C12.1891 7.77713 12.3113 7.66313 12.4002 7.52402C12.4891 7.38491 12.5335 7.22113 12.5335 7.03268C12.5335 6.73268 12.4168 6.48535 12.1835 6.29068C11.9502 6.09602 11.6557 5.99891 11.3002 5.99935C11.0224 5.99935 10.7639 6.08002 10.5248 6.24135C10.2857 6.40268 10.1331 6.59979 10.0668 6.83268L10.7335 7.09935C10.7779 6.96602 10.8502 6.86046 10.9502 6.78268C11.0502 6.70491 11.1668 6.66602 11.3002 6.66602C11.4446 6.66602 11.5639 6.70779 11.6582 6.79135C11.7524 6.87491 11.7997 6.97757 11.8002 7.09935C11.8002 7.25491 11.7446 7.37713 11.6335 7.46602C11.5224 7.55491 11.3779 7.59935 11.2002 7.59935H10.9002V8.26602H11.2335C11.4557 8.26602 11.6279 8.31046 11.7502 8.39935C11.8724 8.48824 11.9335 8.61046 11.9335 8.76602C11.9335 8.91046 11.8724 9.03557 11.7502 9.14135C11.6279 9.24713 11.4891 9.29979 11.3335 9.29935C11.1446 9.29935 11.0002 9.25779 10.9002 9.17468C10.8002 9.09157 10.7113 8.94424 10.6335 8.73268L9.96683 8.99935C10.0446 9.32157 10.2031 9.56891 10.4422 9.74135C10.6813 9.91379 10.9784 9.99979 11.3335 9.99935ZM2.66683 11.9993H13.3335V3.99935H2.66683V11.9993Z" fill="#2F7CE5"/>
</g>
</svg>
