<svg width="37" height="36" viewBox="0 0 37 36" fill="none" xmlns="http://www.w3.org/2000/svg">
<path d="M31.2392 19.8098C31.2392 26.0919 26.6018 27.4326 20.8813 27.4326C15.1608 27.4326 10.5234 26.0919 10.5234 19.8098C10.5234 13.5277 15.1608 7.59424 20.8813 7.59424C26.6018 7.59424 31.2392 13.5277 31.2392 19.8098Z" fill="#00A0DD"/>
<path d="M11.6352 20.9216C11.6352 14.6395 16.2726 8.706 21.9931 8.706C24.2245 8.706 26.2894 9.61159 27.9803 11.0858C26.1261 8.96599 23.6297 7.59424 20.8813 7.59424C15.1608 7.59424 10.5234 13.5277 10.5234 19.8098C10.5234 22.6063 11.4462 24.4195 12.9706 25.5752C12.1239 24.4561 11.6352 22.9492 11.6352 20.9216Z" fill="#00A0DD"/>
<path d="M20.8817 15.0237C20.2688 15.0237 19.77 14.5251 19.77 13.9119C19.77 13.2988 20.2688 12.8001 20.8817 12.8001C21.4946 12.8001 21.9935 13.2988 21.9935 13.9119C21.9935 14.2189 22.2421 14.4678 22.5494 14.4678C22.8566 14.4678 23.1053 14.2189 23.1053 13.9119C23.1053 12.8789 22.394 12.0159 21.4376 11.7673V11.1159C21.4376 10.809 21.189 10.5601 20.8817 10.5601C20.5745 10.5601 20.3259 10.809 20.3259 11.1159V11.7673C19.3694 12.0159 18.6582 12.8789 18.6582 13.9119C18.6582 15.1379 19.6554 16.1354 20.8817 16.1354C21.4946 16.1354 21.9935 16.634 21.9935 17.2472C21.9935 17.8604 21.4946 18.359 20.8817 18.359C20.2688 18.359 19.77 17.8604 19.77 17.2472C19.77 16.9402 19.5213 16.6913 19.2141 16.6913C18.9071 16.6913 18.6582 16.9402 18.6582 17.2472C18.6582 18.2802 19.3694 19.1432 20.3259 19.3918V20.0429C20.3259 20.3499 20.5745 20.5988 20.8817 20.5988C21.189 20.5988 21.4376 20.3499 21.4376 20.0429V19.3918C22.394 19.1432 23.1053 18.2802 23.1053 17.2472C23.1053 16.0212 22.108 15.0237 20.8817 15.0237Z" fill="#25215E"/>
<path d="M18.3255 7.99796C19.1432 7.73613 19.9995 7.59408 20.8818 7.59408C21.7641 7.59408 22.6203 7.73613 23.4381 7.99796L26.2041 5.23192C26.8342 4.60187 26.8342 3.58035 26.2041 2.95027C25.5741 2.32022 24.5526 2.32022 23.9225 2.95027L22.891 3.98179C22.835 2.9163 21.9612 2.06738 20.8818 2.06738C19.8024 2.06738 18.9285 2.9163 18.8726 3.98176L17.8411 2.95027C17.211 2.32022 16.1895 2.32022 15.5595 2.95027C14.9294 3.58035 14.9294 4.60187 15.5595 5.23192L18.3255 7.99796Z" fill="#00A0DD"/>
<path d="M2.35059 21.7231H8.0506V32.5028H2.35059V21.7231Z" fill="#25215E"/>
<path d="M8.05079 22.8349V21.7231H2.35059V32.5027H3.46235V27.4233C3.46235 24.8892 5.51666 22.8349 8.05079 22.8349Z" fill="#25215E"/>
<path d="M8.05078 30.866C8.6716 31.2611 20.3542 34.3087 20.3542 34.3087L33.1129 28.6267C34.4506 28.031 34.9887 26.4158 34.2756 25.1369C33.7087 24.1202 32.5136 23.6314 31.3968 23.9595L22.1038 26.6897C22.1038 25.1821 21.1154 23.8528 19.6716 23.4186L14.0332 21.7231L8.05079 23.7549L8.05078 30.866Z" fill="#FFE0B2"/>
<path d="M33.1129 26.9589L20.3542 32.6409C20.3542 32.6409 8.6716 29.5932 8.05078 29.1982V30.8658C8.6716 31.2609 20.3542 34.3085 20.3542 34.3085L33.1129 28.6265C34.3197 28.0891 34.866 26.7239 34.4398 25.5225C34.2191 26.1376 33.7627 26.6694 33.1129 26.9589Z" fill="#FECC81"/>
<path d="M22.4539 26.2608C22.2161 26.067 21.8676 26.1026 21.6727 26.3387C21.6119 26.412 20.1446 28.1301 16.8294 27.4708C16.5278 27.4092 16.2357 27.6071 16.1758 27.9078C16.116 28.2091 16.3117 28.5017 16.6128 28.5614C17.2191 28.6817 17.7756 28.733 18.2839 28.733C21.1374 28.733 22.4723 27.1188 22.5369 27.0379C22.7286 26.7999 22.6905 26.4538 22.4539 26.2608Z" fill="#FECC81"/>
<path d="M5.73365 23.3696H4.66721C4.36022 23.3696 4.11133 23.6185 4.11133 23.9255C4.11133 24.2325 4.36022 24.4814 4.66721 24.4814H5.73365C6.04063 24.4814 6.28953 24.2325 6.28953 23.9255C6.28953 23.6185 6.04063 23.3696 5.73365 23.3696Z" fill="#FFE0B2"/>
</svg>
