<svg width="64" height="64" viewBox="0 0 64 64" fill="none" xmlns="http://www.w3.org/2000/svg">
<rect width="64" height="64" rx="32" fill="#EEF4FC"/>
<path d="M40 45.3346C38.8889 45.3346 37.9444 44.9457 37.1667 44.168C36.3889 43.3902 36 42.4457 36 41.3346C36 41.1791 36.0111 41.0177 36.0333 40.8506C36.0556 40.6835 36.0889 40.5337 36.1333 40.4013L26.7333 34.9346C26.3556 35.268 25.9333 35.5293 25.4667 35.7186C25 35.908 24.5111 36.0022 24 36.0013C22.8889 36.0013 21.9444 35.6124 21.1667 34.8346C20.3889 34.0569 20 33.1124 20 32.0013C20 30.8902 20.3889 29.9457 21.1667 29.168C21.9444 28.3902 22.8889 28.0013 24 28.0013C24.5111 28.0013 25 28.096 25.4667 28.2853C25.9333 28.4746 26.3556 28.7355 26.7333 29.068L36.1333 23.6013C36.0889 23.468 36.0556 23.3182 36.0333 23.152C36.0111 22.9857 36 22.8244 36 22.668C36 21.5569 36.3889 20.6124 37.1667 19.8346C37.9444 19.0569 38.8889 18.668 40 18.668C41.1111 18.668 42.0556 19.0569 42.8333 19.8346C43.6111 20.6124 44 21.5569 44 22.668C44 23.7791 43.6111 24.7235 42.8333 25.5013C42.0556 26.2791 41.1111 26.668 40 26.668C39.4889 26.668 39 26.5737 38.5333 26.3853C38.0667 26.1969 37.6444 25.9355 37.2667 25.6013L27.8667 31.068C27.9111 31.2013 27.9444 31.3515 27.9667 31.5186C27.9889 31.6857 28 31.8466 28 32.0013C28 32.1569 27.9889 32.3182 27.9667 32.4853C27.9444 32.6524 27.9111 32.8022 27.8667 32.9346L37.2667 38.4013C37.6444 38.068 38.0667 37.8071 38.5333 37.6186C39 37.4302 39.4889 37.3355 40 37.3346C41.1111 37.3346 42.0556 37.7235 42.8333 38.5013C43.6111 39.2791 44 40.2235 44 41.3346C44 42.4457 43.6111 43.3902 42.8333 44.168C42.0556 44.9457 41.1111 45.3346 40 45.3346Z" fill="#2F7CE5"/>
</svg>
