<svg width="25" height="25" viewBox="0 0 25 25" fill="none" xmlns="http://www.w3.org/2000/svg">
<rect x="0.5" y="0.5" width="24" height="24" rx="12" fill="#25215E"/>
<rect x="0.5" y="0.5" width="24" height="24" rx="12" stroke="#25215E"/>
<path d="M15.7501 15.0727C15.6635 15.0727 15.5822 15.0457 15.5064 14.9915C15.3276 14.8561 15.2897 14.6015 15.4251 14.4227C16.2756 13.2907 16.2756 11.709 15.4251 10.5769C15.2897 10.3982 15.3276 10.1436 15.5064 10.0082C15.6851 9.87274 15.9397 9.91066 16.0751 10.0894C17.1368 11.5086 17.1368 13.4911 16.0751 14.9102C15.9939 15.0186 15.8747 15.0727 15.7501 15.0727Z" fill="white"/>
<path d="M16.7414 16.4271C16.6547 16.4271 16.5734 16.4 16.4976 16.3458C16.3189 16.2104 16.2809 15.9558 16.4164 15.7771C17.8626 13.8487 17.8626 11.1512 16.4164 9.2229C16.2809 9.04415 16.3189 8.78957 16.4976 8.65415C16.6764 8.51874 16.9309 8.55665 17.0664 8.7354C18.7293 10.9508 18.7293 14.0492 17.0664 16.2646C16.9905 16.3729 16.8659 16.4271 16.7414 16.4271Z" fill="white"/>
<path d="M13.5938 8.04743C12.9872 7.7116 12.2126 7.79827 11.4218 8.29118L9.84009 9.28243C9.73176 9.34743 9.60717 9.38535 9.48259 9.38535H8.97884H8.70801C7.39717 9.38535 6.67676 10.1058 6.67676 11.4166V13.5833C6.67676 14.8941 7.39717 15.6145 8.70801 15.6145H8.97884H9.48259C9.60717 15.6145 9.73176 15.6524 9.84009 15.7174L11.4218 16.7087C11.8984 17.0066 12.3643 17.1528 12.7976 17.1528C13.0793 17.1528 13.3501 17.0878 13.5938 16.9524C14.1951 16.6166 14.5309 15.9178 14.5309 14.9862V10.0137C14.5309 9.08202 14.1951 8.38327 13.5938 8.04743Z" fill="white"/>
</svg>
