<svg width="27" height="27" viewBox="0 0 27 27" fill="none" xmlns="http://www.w3.org/2000/svg">
<g clip-path="url(#clip0_2128_16380)">
<path d="M1.34175 9.71438C0.614054 9.71438 0.128906 9.22924 0.128906 8.50154V3.65021C0.128906 1.58839 1.70558 0.0117188 3.76739 0.0117188H8.61873C9.34642 0.0117188 9.83157 0.496867 9.83157 1.22456C9.83157 1.95226 9.34642 2.43741 8.61873 2.43741H3.76739C3.0397 2.43741 2.55455 2.92256 2.55455 3.65026V8.50159C2.5546 9.22924 2.06945 9.71438 1.34175 9.71438Z" fill="#00A0DD"/>
<path d="M25.5983 9.71438C24.8706 9.71438 24.3854 9.22924 24.3854 8.50154V3.65021C24.3854 2.92251 23.9003 2.43736 23.1726 2.43736H18.3212C17.5935 2.43736 17.1084 1.95221 17.1084 1.22451C17.1084 0.496818 17.5935 0.0117188 18.3212 0.0117188H23.1726C25.2344 0.0117188 26.8111 1.58839 26.8111 3.65021V8.50154C26.8111 9.22924 26.326 9.71438 25.5983 9.71438Z" fill="#00A0DD"/>
<path d="M8.61873 26.6939H3.76739C1.70558 26.6939 0.128906 25.1172 0.128906 23.0554V18.2041C0.128906 17.4764 0.614054 16.9912 1.34175 16.9912C2.06945 16.9912 2.5546 17.4764 2.5546 18.2041V23.0554C2.5546 23.7831 3.03975 24.2682 3.76744 24.2682H8.61877C9.34647 24.2682 9.83162 24.7534 9.83162 25.4811C9.83157 26.2087 9.34642 26.6939 8.61873 26.6939Z" fill="#00A0DD"/>
<path d="M23.1726 26.6939H18.3212C17.5935 26.6939 17.1084 26.2088 17.1084 25.4811C17.1084 24.7534 17.5935 24.2682 18.3212 24.2682H23.1726C23.9003 24.2682 24.3854 23.7831 24.3854 23.0554V18.2041C24.3854 17.4764 24.8706 16.9912 25.5983 16.9912C26.326 16.9912 26.8111 17.4764 26.8111 18.2041V23.0554C26.8111 25.1173 25.2344 26.6939 23.1726 26.6939Z" fill="#00A0DD"/>
<path d="M11.0446 12.1403H6.19331C5.46562 12.1403 4.98047 11.6552 4.98047 10.9275V6.07613C4.98047 5.34843 5.46562 4.86328 6.19331 4.86328H11.0446C11.7723 4.86328 12.2575 5.34843 12.2575 6.07613V10.9275C12.2575 11.6552 11.7723 12.1403 11.0446 12.1403ZM7.40616 9.71461H9.83185V7.28892H7.40616V9.71461Z" fill="#25215E"/>
<path d="M11.0446 21.8429H6.19331C5.46562 21.8429 4.98047 21.3578 4.98047 20.6301V15.7788C4.98047 15.0511 5.46562 14.5659 6.19331 14.5659H11.0446C11.7723 14.5659 12.2575 15.0511 12.2575 15.7788V20.6301C12.2575 21.3578 11.7723 21.8429 11.0446 21.8429ZM7.40616 19.4173H9.83185V16.9916H7.40616V19.4173Z" fill="#25215E"/>
<path d="M20.7468 12.1403H15.8955C15.1678 12.1403 14.6826 11.6552 14.6826 10.9275V6.07613C14.6826 5.34843 15.1678 4.86328 15.8955 4.86328H20.7468C21.4745 4.86328 21.9596 5.34843 21.9596 6.07613V10.9275C21.9596 11.6552 21.4745 12.1403 20.7468 12.1403ZM17.1083 9.71461H19.534V7.28892H17.1083V9.71461Z" fill="#25215E"/>
<path d="M15.8955 18.204C15.1678 18.204 14.6826 17.7188 14.6826 16.9911V15.7783C14.6826 15.0506 15.1678 14.5654 15.8955 14.5654C16.6232 14.5654 17.1083 15.0506 17.1083 15.7783V16.9911C17.1083 17.7189 16.6232 18.204 15.8955 18.204Z" fill="#25215E"/>
<path d="M20.747 16.9916H19.5341C18.8064 16.9916 18.3213 16.5065 18.3213 15.7788C18.3213 15.0511 18.8064 14.5659 19.5341 14.5659H20.747C21.4747 14.5659 21.9598 15.0511 21.9598 15.7788C21.9598 16.5065 21.4747 16.9916 20.747 16.9916Z" fill="#25215E"/>
<path d="M20.7468 21.8427H17.1084C16.3807 21.8427 15.8955 21.3575 15.8955 20.6298C15.8955 19.9021 16.3807 19.417 17.1084 19.417H20.7468C21.4745 19.417 21.9597 19.9021 21.9597 20.6298C21.9597 21.3575 21.4745 21.8427 20.7468 21.8427Z" fill="#25215E"/>
</g>
<defs>
<clipPath id="clip0_2128_16380">
<rect width="26.6824" height="26.6824" fill="white" transform="translate(0.128906 0.0117188)"/>
</clipPath>
</defs>
</svg>
