<svg width="17" height="16" viewBox="0 0 17 16" fill="none" xmlns="http://www.w3.org/2000/svg">
<path id="Vector" d="M15.2503 5.6819C13.742 5.6819 13.1253 4.61523 13.8753 3.3069C14.3087 2.54856 14.0503 1.5819 13.292 1.14856L11.8503 0.323564C11.192 -0.0681031 10.342 0.16523 9.95033 0.823564L9.85866 0.981897C9.10866 2.29023 7.87533 2.29023 7.11699 0.981897L7.02532 0.823564C6.93549 0.666048 6.81523 0.527971 6.67154 0.417368C6.52784 0.306765 6.36359 0.225844 6.18833 0.179315C6.01307 0.132786 5.8303 0.121577 5.65067 0.146341C5.47104 0.171106 5.29812 0.231348 5.14199 0.323564L3.70033 1.14856C2.94199 1.5819 2.68366 2.5569 3.11699 3.31523C3.87533 4.61523 3.25866 5.6819 1.75033 5.6819C0.883659 5.6819 0.166992 6.39023 0.166992 7.26523V8.7319C0.166992 9.59856 0.875326 10.3152 1.75033 10.3152C3.25866 10.3152 3.87533 11.3819 3.11699 12.6902C2.68366 13.4486 2.94199 14.4152 3.70033 14.8486L5.14199 15.6736C5.80033 16.0652 6.65033 15.8319 7.04199 15.1736L7.13366 15.0152C7.88366 13.7069 9.11699 13.7069 9.87533 15.0152L9.96699 15.1736C10.3587 15.8319 11.2087 16.0652 11.867 15.6736L13.3087 14.8486C14.067 14.4152 14.3253 13.4402 13.892 12.6902C13.1337 11.3819 13.7503 10.3152 15.2587 10.3152C16.1253 10.3152 16.842 9.6069 16.842 8.7319V7.26523C16.8376 6.84522 16.6683 6.44377 16.3705 6.14754C16.0727 5.85131 15.6704 5.68406 15.2503 5.6819ZM8.50033 10.7069C7.00866 10.7069 5.79199 9.49023 5.79199 7.99856C5.79199 6.5069 7.00866 5.29023 8.50033 5.29023C9.99199 5.29023 11.2087 6.5069 11.2087 7.99856C11.2087 9.49023 9.99199 10.7069 8.50033 10.7069Z" fill="#2F7CE5"/>
</svg>
