<svg width="31" height="31" viewBox="0 0 31 31" fill="none" xmlns="http://www.w3.org/2000/svg">
<path d="M25.4958 26.4439C25.4958 27.9819 24.249 29.2288 22.711 29.2288H4.38965L6.14849 25.7111V4.01863C6.14849 3.03555 6.95751 2.23716 7.94926 2.26025L25.4958 5.77748V26.4439Z" fill="#00A0DD"/>
<path d="M28.4277 23.3661V25.1249C28.4277 25.4487 28.1652 25.7112 27.8414 25.7112C27.5874 25.7112 20.7628 25.7112 20.806 25.7112C20.4822 25.7112 20.2197 25.4487 20.2197 25.1249V23.3661C20.2197 23.0423 20.4822 22.7798 20.806 22.7798L23.6788 21.9785L26.6688 22.7798C27.4068 22.7798 27.8858 22.7798 27.8414 22.7798C28.1652 22.7798 28.4277 23.0423 28.4277 23.3661Z" fill="#25215E"/>
<path d="M28.4277 17.503V19.2618C28.4277 19.5856 28.1652 19.8481 27.8414 19.8481C27.8045 19.8481 27.3414 19.8481 26.6688 19.8481L23.6788 20.4344L20.806 19.8481C20.4822 19.8481 20.2197 19.5856 20.2197 19.2618V17.503C20.2197 17.1792 20.4822 16.9167 20.806 16.9167C20.8933 16.9167 22.3715 15.7441 23.8742 15.7441C25.1813 15.7441 26.4783 16.9167 27.2551 16.9167C27.6683 16.9167 27.9011 16.9167 27.8414 16.9167C28.1652 16.9167 28.4277 17.1792 28.4277 17.503Z" fill="#25215E"/>
<path d="M27.2548 20.4344V22.1933C27.2548 22.5171 26.9923 22.7796 26.6685 22.7796C26.465 22.7796 19.3319 22.7796 19.6332 22.7796C19.3094 22.7796 19.0469 22.5171 19.0469 22.1933V20.4344C19.0469 20.1106 19.3094 19.8481 19.6332 19.8481C19.7823 19.8481 26.8725 19.8481 26.6685 19.8481C26.9923 19.8481 27.2548 20.1106 27.2548 20.4344Z" fill="#8A4CB7"/>
<path d="M27.2548 14.5716V16.3305C27.2548 16.6543 26.9928 16.9168 26.669 16.9168C24.7838 16.9168 19.4902 16.9168 19.6332 16.9168C19.3094 16.9168 19.0469 16.6543 19.0469 16.3305V14.5716C19.0469 14.2478 19.3094 13.9854 19.6332 13.9854C19.8412 13.9854 26.8762 13.9854 26.6685 13.9854C26.9923 13.9854 27.2548 14.2478 27.2548 14.5716Z" fill="#8A4CB7"/>
<path d="M26.6683 4.92735V5.19118C26.6683 5.51498 26.4058 5.77746 26.082 5.77746H25.4957H10.2524C9.92855 5.77746 9.66607 5.51498 9.66607 5.19118V4.01861C9.66607 3.04714 8.8787 2.25977 7.90723 2.25977H24.0007C25.4739 2.25977 26.6683 3.45408 26.6683 4.92735Z" fill="#EAA900"/>
<path d="M6.14855 25.7109V27.4342C6.14855 28.3953 5.39248 29.2057 4.43162 29.2282C3.43864 29.2513 2.63086 28.4516 2.63086 27.4698V26.2972C2.63086 25.9734 2.89334 25.7109 3.21714 25.7109H6.14855Z" fill="#EAA900"/>
<path d="M16.1152 9.29512H8.49351C8.16971 9.29512 7.90723 9.03264 7.90723 8.70884C7.90723 8.38504 8.16971 8.12256 8.49351 8.12256H16.1152C16.439 8.12256 16.7015 8.38504 16.7015 8.70884C16.7015 9.03264 16.439 9.29512 16.1152 9.29512Z" fill="#FADE65"/>
<path d="M16.1152 12.2268H8.49351C8.16971 12.2268 7.90723 11.9643 7.90723 11.6405C7.90723 11.3167 8.16971 11.0542 8.49351 11.0542H16.1152C16.439 11.0542 16.7015 11.3167 16.7015 11.6405C16.7015 11.9643 16.439 12.2268 16.1152 12.2268Z" fill="#FADE65"/>
<path d="M16.1152 15.1579H8.49351C8.16971 15.1579 7.90723 14.8954 7.90723 14.5716C7.90723 14.2478 8.16971 13.9854 8.49351 13.9854H16.1152C16.439 13.9854 16.7015 14.2478 16.7015 14.5716C16.7015 14.8954 16.439 15.1579 16.1152 15.1579Z" fill="#FADE65"/>
<path d="M16.1152 18.0896H8.49351C8.16971 18.0896 7.90723 17.827 7.90723 17.5033C7.90723 17.1795 8.16971 16.917 8.49351 16.917H16.1152C16.439 16.917 16.7015 17.1795 16.7015 17.5033C16.7015 17.827 16.439 18.0896 16.1152 18.0896Z" fill="#FADE65"/>
<path d="M16.1152 21.0207H8.49351C8.16971 21.0207 7.90723 20.7582 7.90723 20.4344C7.90723 20.1107 8.16971 19.8481 8.49351 19.8481H16.1152C16.439 19.8481 16.7015 20.1107 16.7015 20.4344C16.7015 20.7582 16.439 21.0207 16.1152 21.0207Z" fill="#FADE65"/>
</svg>
