<svg width="237" height="237" viewBox="0 0 237 237" fill="none" xmlns="http://www.w3.org/2000/svg">
<circle opacity="0.2" cx="118.5" cy="118.5" r="118.5" fill="#00A0DD"/>
<circle cx="118.5" cy="118.5" r="79" fill="#00A0DD"/>
<path d="M147.689 96.5201C146.738 96.5485 145.837 96.9456 145.174 97.6274L107.529 135.273L95.4848 123.229C95.1478 122.878 94.7441 122.598 94.2974 122.405C93.8508 122.212 93.37 122.11 92.8835 122.105C92.3969 122.1 91.9142 122.192 91.4637 122.376C91.0132 122.56 90.6039 122.832 90.2598 123.176C89.9157 123.52 89.6438 123.929 89.4598 124.38C89.2759 124.83 89.1837 125.313 89.1887 125.8C89.1936 126.286 89.2956 126.767 89.4887 127.214C89.6817 127.66 89.962 128.064 90.313 128.401L104.943 143.031C105.629 143.716 106.559 144.101 107.529 144.101C108.498 144.101 109.428 143.716 110.114 143.031L150.346 102.799C150.874 102.285 151.235 101.624 151.382 100.902C151.528 100.179 151.452 99.4295 151.165 98.7507C150.878 98.072 150.392 97.4958 149.772 97.0978C149.151 96.6998 148.425 96.4984 147.689 96.5201Z" fill="white"/>
</svg>
