<svg width="118" height="118" viewBox="0 0 118 118" fill="none" xmlns="http://www.w3.org/2000/svg">
<path fill-rule="evenodd" clip-rule="evenodd" d="M0 59C0 26.4152 26.4152 0 59 0C91.5848 0 118 26.4152 118 59C118 91.5848 91.5848 118 59 118C26.4152 118 0 91.5848 0 59Z" fill="#E7F0FF"/>
<path fill-rule="evenodd" clip-rule="evenodd" d="M48.8657 81.1395L28.0657 60.2199C26.816 58.9631 26.816 56.9253 28.0657 55.6684L32.591 51.1168C33.8407 49.8599 35.8669 49.8599 37.1165 51.1168L51.1284 65.2092L81.1403 35.0248C82.3899 33.768 84.4162 33.768 85.6658 35.0248L90.1912 39.5763C91.4408 40.8331 91.4408 42.8709 90.1912 44.1279L53.3912 81.1396C52.1414 82.3964 50.1153 82.3964 48.8657 81.1395L48.8657 81.1395Z" fill="#1890FF"/>
</svg>
