<svg width="16" height="13" viewBox="0 0 16 13" fill="none" xmlns="http://www.w3.org/2000/svg">
<g id="fa-solid:user-friends">
<path id="Vector" d="M4.8 6.35707C6.3475 6.35707 7.6 5.1126 7.6 3.57502C7.6 2.03744 6.3475 0.792969 4.8 0.792969C3.2525 0.792969 2 2.03744 2 3.57502C2 5.1126 3.2525 6.35707 4.8 6.35707ZM6.72 7.15194H6.5125C5.9925 7.40034 5.415 7.54938 4.8 7.54938C4.185 7.54938 3.61 7.40034 3.0875 7.15194H2.88C1.29 7.15194 0 8.43367 0 10.0135V10.7289C0 11.3871 0.5375 11.9212 1.2 11.9212H8.4C9.0625 11.9212 9.6 11.3871 9.6 10.7289V10.0135C9.6 8.43367 8.31 7.15194 6.72 7.15194ZM12 6.35707C13.325 6.35707 14.4 5.28896 14.4 3.97246C14.4 2.65595 13.325 1.58784 12 1.58784C10.675 1.58784 9.6 2.65595 9.6 3.97246C9.6 5.28896 10.675 6.35707 12 6.35707ZM13.2 7.15194H13.105C12.7575 7.27117 12.39 7.35066 12 7.35066C11.61 7.35066 11.2425 7.27117 10.895 7.15194H10.8C10.29 7.15194 9.82 7.2985 9.4075 7.53448C10.0175 8.18776 10.4 9.05467 10.4 10.0135V10.9673C10.4 11.022 10.3875 11.0741 10.385 11.1263H14.8C15.4625 11.1263 16 10.5922 16 9.93399C16 8.39641 14.7475 7.15194 13.2 7.15194Z" fill="#2F7CE5"/>
</g>
</svg>
