<svg width="34" height="27" viewBox="0 0 34 27" fill="none" xmlns="http://www.w3.org/2000/svg">
<path d="M27.3077 14.396C27.0577 14.3961 26.8134 14.4702 26.6062 14.609C26.399 14.7477 26.2383 14.9446 26.1449 15.1746C26.0514 15.4046 26.0294 15.657 26.0818 15.8994C26.1341 16.1419 26.2583 16.3633 26.4384 16.5353L29.3083 19.3788H19.5863C19.4193 19.3752 19.2533 19.4047 19.098 19.4656C18.9427 19.5264 18.8012 19.6174 18.6818 19.7332C18.5624 19.849 18.4676 19.9874 18.4028 20.14C18.338 20.2927 18.3047 20.4566 18.3047 20.6222C18.3047 20.7878 18.338 20.9517 18.4028 21.1044C18.4676 21.257 18.5624 21.3954 18.6818 21.5112C18.8012 21.627 18.9427 21.718 19.098 21.7788C19.2533 21.8397 19.4193 21.8691 19.5863 21.8654H29.3181L26.4384 24.7212C26.3185 24.8361 26.2229 24.9735 26.1572 25.1255C26.0915 25.2775 26.0571 25.4411 26.0559 25.6064C26.0547 25.7718 26.0868 25.9357 26.1502 26.0886C26.2137 26.2415 26.3073 26.3804 26.4255 26.497C26.5438 26.6136 26.6843 26.7057 26.8388 26.7678C26.9934 26.8299 27.1589 26.8608 27.3256 26.8587C27.4924 26.8566 27.657 26.8214 27.8099 26.7555C27.9628 26.6895 28.1009 26.594 28.2162 26.4744L33.2311 21.5085C33.3482 21.3929 33.4411 21.2557 33.5045 21.1044C33.568 20.9531 33.6006 20.7909 33.6006 20.6271C33.6006 20.4633 33.568 20.3011 33.5045 20.1498C33.4411 19.9985 33.3482 19.8611 33.2311 19.7456L28.2162 14.7724C28.0982 14.6521 27.9569 14.5568 27.8007 14.4921C27.6446 14.4274 27.4769 14.3947 27.3077 14.396Z" fill="#25215E"/>
<path d="M6.1784 0.78078C6.40548 0.549 6.71462 0.413913 7.04035 0.40428C7.29299 0.397378 7.54184 0.466347 7.75426 0.602151C7.96668 0.737954 8.13277 0.934276 8.23072 1.16532C8.32868 1.39636 8.35395 1.65139 8.3032 1.89692C8.25246 2.14246 8.12808 2.36702 7.94636 2.54122L5.06669 5.39699H14.151C14.4788 5.40413 14.7907 5.53823 15.0199 5.77061C15.2491 6.003 15.3775 6.31512 15.3775 6.64021C15.3775 6.9653 15.2491 7.27757 15.0199 7.50995C14.7907 7.74233 14.4788 7.87643 14.151 7.88358H5.07649L7.94636 10.7296C8.07111 10.8428 8.17147 10.9798 8.2414 11.1325C8.31134 11.2852 8.34941 11.4503 8.35332 11.618C8.35724 11.7856 8.32691 11.9523 8.26418 12.1081C8.20144 12.2638 8.10758 12.4054 7.98826 12.5242C7.86893 12.643 7.7266 12.7366 7.56983 12.7995C7.41305 12.8623 7.24507 12.8931 7.076 12.8899C6.90693 12.8867 6.74025 12.8497 6.58599 12.7809C6.43174 12.7122 6.29309 12.6134 6.1784 12.4902L1.16346 7.51684C1.04635 7.4013 0.953419 7.2639 0.890004 7.11263C0.82659 6.96136 0.793945 6.79915 0.793945 6.63533C0.793945 6.4715 0.82659 6.3093 0.890004 6.15803C0.953419 6.00675 1.04635 5.8695 1.16346 5.75396L6.1784 0.78078Z" fill="#25215E"/>
<rect x="17.1074" y="2.67334" width="14.2894" height="7.89101" rx="1" fill="#00A0DD"/>
<rect x="1.90527" y="16.938" width="14.2894" height="7.89101" rx="1" fill="#00A0DD"/>
</svg>
