<svg width="15" height="18" viewBox="0 0 15 18" fill="none" xmlns="http://www.w3.org/2000/svg">
<path d="M12.77 0.371521C11.65 -0.248479 10.22 -0.0884793 8.76 0.821521L5.84 2.65152C5.64 2.77152 5.41 2.84152 5.18 2.84152H4.25H3.75C1.33 2.84152 0 4.17152 0 6.59152V10.5915C0 13.0115 1.33 14.3415 3.75 14.3415H4.25H5.18C5.41 14.3415 5.64 14.4115 5.84 14.5315L8.76 16.3615C9.64 16.9115 10.5 17.1815 11.3 17.1815C11.82 17.1815 12.32 17.0615 12.77 16.8115C13.88 16.1915 14.5 14.9015 14.5 13.1815V4.00152C14.5 2.28152 13.88 0.991521 12.77 0.371521Z" fill="#25215E"/>
</svg>
